<?xml version="1.0" encoding="utf-8"?>
<!-- Generator: Adobe Illustrator 18.0.0, SVG Export Plug-In . SVG Version: 6.00 Build 0)  -->
<!DOCTYPE svg PUBLIC "-//W3C//DTD SVG 1.1//EN" "http://www.w3.org/Graphics/SVG/1.1/DTD/svg11.dtd">
<svg version="1.1" id="Layer_1" xmlns="http://www.w3.org/2000/svg" xmlns:xlink="http://www.w3.org/1999/xlink" x="0px" y="0px"
	 viewBox="0 0 404.2 107.2" enable-background="new 0 0 404.2 107.2" xml:space="preserve">
<g>
	<g>
		<g>
			<g>
				<path d="M0,34h26.5v5H7.8v3.9h17.9v4.9H7.8V55H0V34z"/>
				<path d="M31.2,34H39v15.6h17.5V55H31.2V34z"/>
				<path d="M59.3,41.3c0-1.5,0.2-2.8,0.8-3.8c0.5-1,1.2-1.8,2.2-2.3c1-0.6,2.1-1,3.5-1.2c1.4-0.2,2.9-0.3,4.7-0.3h12.5
					c1.8,0,3.3,0.1,4.7,0.3c1.4,0.2,2.6,0.6,3.5,1.2c1,0.6,1.7,1.3,2.2,2.3c0.5,1,0.8,2.2,0.8,3.8v6.3c0,1.5-0.3,2.8-0.8,3.8
					c-0.5,1-1.2,1.8-2.2,2.3c-1,0.6-2.1,1-3.5,1.2c-1.4,0.2-2.9,0.3-4.7,0.3H70.4c-1.8,0-3.3-0.1-4.7-0.3c-1.4-0.2-2.6-0.6-3.5-1.2
					c-1-0.6-1.7-1.3-2.2-2.3c-0.5-1-0.8-2.2-0.8-3.8V41.3z M67.3,45.6c0,0.8,0.1,1.4,0.2,1.9c0.1,0.5,0.3,1,0.7,1.3
					c0.3,0.3,0.8,0.6,1.4,0.7c0.6,0.2,1.3,0.2,2.2,0.2h10c0.9,0,1.7-0.1,2.2-0.2c0.6-0.2,1-0.4,1.4-0.7c0.3-0.3,0.6-0.8,0.7-1.3
					c0.1-0.5,0.2-1.2,0.2-1.9v-2.3c0-0.7-0.1-1.2-0.2-1.8c-0.1-0.5-0.4-1-0.7-1.3c-0.3-0.4-0.8-0.6-1.5-0.8
					c-0.6-0.2-1.5-0.3-2.5-0.3h-9.1c-1,0-1.9,0.1-2.5,0.3c-0.6,0.2-1.1,0.5-1.5,0.8c-0.3,0.4-0.6,0.8-0.7,1.3
					c-0.1,0.5-0.2,1.1-0.2,1.8V45.6z"/>
				<path d="M96.4,34h7.6l5.4,15.4h0.1L116,34h7.2l6.5,15.4h0.1l5.4-15.4h7.6l-8.2,21h-8.9l-5.9-13.9h-0.1L113.6,55h-8.9L96.4,34z"
					/>
			</g>
			<path d="M93.8,75.2H70.5l0.2,2.3c0,0,0,0,0,0c8.3-0.7,15.5,5.4,16.2,13.6c0.7,8-5,15.1-12.9,16.2c12.9-1.5,22.3-13,21.1-26
				C95,79.1,94.5,77.1,93.8,75.2z"/>
			<path d="M46.8,32.1h23.4L70,29.8c0,0,0,0,0,0c-8.3,0.7-15.5-5.4-16.2-13.6c-0.7-8,5-15.1,12.9-16.2C53.8,1.5,44.4,13,45.5,26
				C45.7,28.1,46.2,30.1,46.8,32.1z"/>
			<g>
				<g>
					<g>
						<g>
							<path d="M0,73.6V55.5h1.8v8.2h22.4v-8.1h1.8v18.2h-1.8v-8.8H1.9v8.7H0z"/>
							<path d="M48.2,73.6c-3.1,0-7.6,0-10.7,0c-6,0-8.6-0.6-8.7-6.1c0-2.3-0.1-3.4,0-5.7c0.2-5.5,2.3-6.3,8.6-6.3
								c3.1,0,7.6,0,10.7,0c5.4,0,8.3,0.9,8.5,6.3c0.1,1.9,0,4,0,5.7C56.7,72.6,54.7,73.6,48.2,73.6z M48.2,56.9
								c-3.1,0-7.6,0-10.7,0c-5.5,0-6.8,0.8-6.9,5c0,1.8,0,3.5,0,5.7c0,4.2,1.7,4.8,6.9,4.8c3,0,7.8,0,10.7,0c4.6,0,6.7-0.5,6.7-4.8
								c0-2.3,0-4,0-5.7C54.8,57.6,53.4,56.9,48.2,56.9z"/>
							<path d="M59.6,55.5h1.8v13c0,2.9,1.9,3.9,7.3,3.9c3,0,7.7,0,10.7,0c4.5,0,6.2-1.2,6.2-4.1l0-12.8l1.8,0v11.8
								c0,5-2.3,6.3-8.7,6.3c-3.1,0-6.9,0-10,0c-6.6-0.1-9-0.9-9-6.3V55.5z"/>
						</g>
					</g>
				</g>
				<polygon points="142.2,55.5 142.2,56.7 123,56.7 123,63.7 141.6,63.7 141.6,64.9 123,64.9 123,72.4 142.2,72.4 142.2,73.6 
					121.2,73.6 121.2,55.5 				"/>
				<path d="M118.1,60.1h-1.8c0,0-0.1-1.6-1.6-2.5c-1.5-0.9-3.3-0.9-10.1-0.9c-6.9,0-9.6-0.2-11.2,0.9c-1.5,1.1-1.4,3-1.3,3.6
					c0.1,0.7,0.6,1.7,2.2,2.2c1.6,0.4,5.4,0.3,9.9,0.3c4.5,0,8.2-0.1,10.6,0.4c2.4,0.6,3.2,1.6,3.5,2.9c0.2,1.3,0.1,3.4-0.7,4.6
					c-0.9,1.2-2.4,1.8-4.7,2c-2.3,0.2-8.6,0.1-12.3,0.1c-3.7,0-9.5,0.4-10.1-4.6h1.8c0,0,0.1,1.2,0.9,1.9c0.8,0.7,2.2,1.3,4,1.4
					c1.9,0.1,10.2,0,13,0c2.8,0,5.2-0.3,6-2.2c0.8-1.9,0.2-4.2-1.6-4.8c-1.7-0.6-3.4-0.6-10.2-0.5c-6.7,0.1-10,0.1-12-0.8
					c-2-0.9-2.4-2.4-2.2-4.5c0.2-2.1,1.9-3.8,5-4c3.1-0.2,7.8-0.2,9.5-0.2c1.8,0,6.1-0.1,8.2,0.2C115.1,56,117.9,57,118.1,60.1z"/>
			</g>
		</g>
		<g>
			<path d="M145.1,55.5v2.4h-0.4v-2.4h-0.9v-0.3h2.2v0.3H145.1z M149.3,55.2v2.7H149v-2.2v0v-0.1v0c0,0,0,0,0,0l0,0.1l0,0.1l-1,2.2
				h-0.4l-1-2.2l0,0l0,0c0,0,0,0,0,0v0.1v0.1v0.1v2.2h-0.4v-2.7h0.6l0.7,1.7l0.1,0.3l0.1,0.2l0,0.1c0,0,0-0.1,0-0.1l0.1-0.2l0.1-0.3
				l0.7-1.7H149.3z"/>
		</g>
		<g>
			<path d="M101.2,82v-6.4h3.2c1.2,0,1.5,0.6,1.5,1.7c0,0.7-0.1,1.1-0.8,1.3v0c0.8,0.2,1,0.8,1,1.5c0,1.1-0.4,1.8-1.5,1.8H101.2z
				 M101.9,78.4h2.1c0.9,0,1.2-0.2,1.2-1.2c0-0.9-0.3-1-1.1-1h-2.2V78.4z M101.9,81.3h2.3c0.8,0,1.2-0.1,1.2-1.1
				c0-0.8-0.1-1.3-1.1-1.3h-2.4V81.3z"/>
			<path d="M107.9,80.6l-0.5,1.3h-0.8l2.3-6.4h1l2.4,6.4h-0.7l-0.5-1.3H107.9z M109.5,76.2l-1.4,3.8h2.8L109.5,76.2z"/>
			<path d="M118.6,82h-1.2l-3.6-5.8h0V82h-0.7v-6.4h1.2l3.6,5.8h0v-5.8h0.7V82z"/>
			<path d="M124.9,78.8v1.4c0,1.5-0.7,1.9-2.1,1.9h-0.7c-1.7,0-2.4-0.3-2.4-2.3v-2c0-1.7,0.8-2.2,1.9-2.2h1.7c1,0,1.7,0.4,1.7,1.4
				v0.5h-0.7v-0.4c0-0.7-0.3-0.9-1.3-0.9h-0.9c-1.4,0-1.6,0.3-1.6,1.7v2c0,1.2,0.4,1.5,1.6,1.5h0.7c1.3,0,1.5-0.2,1.5-1.2v-0.8h-2
				v-0.6H124.9z"/>
			<path d="M126.6,78.4h0.6l2.6-2.8h0.9l-2.9,3.1l3.3,3.3h-1l-2.9-2.9h-0.6V82h-0.7v-6.4h0.7V78.4z"/>
			<path d="M134.4,75.6c1.6,0,2.1,0.5,2.1,2.1V80c0,1.5-0.5,2.1-2.1,2.1h-0.9c-1.5,0-2.1-0.6-2.1-2.1v-2.3c0-1.6,0.5-2.1,2.1-2.1
				H134.4z M133.5,76.2c-1.1,0-1.4,0.3-1.4,1.5V80c0,1.3,0.4,1.4,1.4,1.4h0.9c0.9,0,1.4-0.2,1.4-1.4v-2.3c0-1.2-0.3-1.5-1.4-1.5
				H133.5z"/>
			<path d="M138.2,78.4h0.6l2.6-2.8h0.9l-2.9,3.1l3.3,3.3h-1l-2.9-2.9h-0.6V82h-0.7v-6.4h0.7V78.4z"/>
		</g>
	</g>
	<rect x="159.1" y="34" width="1.6" height="47.7"/>
	<g>
		<g>
			<g>
				<path d="M225.6,40.2l-0.5,0.1l-0.4,0.1l-0.9,0.2l-1.9,0.4c-0.6,0.1-1.2,0.3-1.8,0.4c-0.6,0.1-1.2,0.3-1.9,0.4
					c-1.2,0.3-2.4,0.6-3.7,0.9c-1.2,0.3-2.5,0.7-3.7,1c-1.2,0.4-2.4,0.7-3.7,1.1c-1.2,0.4-2.4,0.8-3.6,1.2c-0.6,0.2-1.2,0.4-1.8,0.7
					c-0.6,0.2-1.2,0.5-1.8,0.7l-1.7,0.8c-0.3,0.1-0.6,0.3-0.8,0.4c-0.3,0.1-0.6,0.3-0.8,0.4c-0.5,0.3-1,0.6-1.6,0.9
					c-0.5,0.3-1,0.7-1.4,1c-0.2,0.2-0.4,0.4-0.6,0.5c-0.2,0.2-0.3,0.4-0.5,0.6c-0.1,0.1-0.1,0.2-0.2,0.3c-0.1,0.1-0.1,0.2-0.2,0.3
					c-0.1,0.2-0.1,0.4-0.2,0.5c0,0.1,0,0.3,0,0.4c0,0.1,0.1,0.2,0.2,0.4c0.1,0.1,0.1,0.1,0.2,0.2c0.1,0,0.2,0.1,0.2,0.2
					c0.1,0,0.2,0.1,0.3,0.1c0.1,0,0.2,0.1,0.3,0.1c0.4,0.1,1,0.2,1.5,0.3c0.3,0,0.6,0.1,0.8,0.1c0.3,0,0.6,0,0.8,0
					c0.6,0,1.2,0,1.7,0c0.6,0,1.2,0,1.8-0.1c0.6,0,1.2-0.1,1.8-0.1c0.6,0,1.2-0.1,1.8-0.1l3.7-0.2c0.6,0,1.2,0,1.8,0
					c0.6,0,1.2,0,1.8,0c0.3,0,0.6,0,0.9,0.1c0.3,0,0.6,0,0.9,0.1c0.3,0,0.6,0.1,0.9,0.1c0.3,0,0.6,0.1,0.9,0.2
					c0.6,0.2,1.1,0.4,1.6,0.6c0.1,0.1,0.2,0.2,0.4,0.2c0.1,0.1,0.2,0.2,0.3,0.3c0.1,0.1,0.2,0.2,0.3,0.3c0.1,0.1,0.2,0.2,0.2,0.4
					c0.1,0.3,0.2,0.5,0.3,0.8c0.1,0.3,0.1,0.6,0,0.9c0,0.1,0,0.3-0.1,0.5c0,0.2-0.1,0.3-0.1,0.5l-0.2,0.7l0,0.1l-0.1,0.2
					c-0.3,0.6-0.7,1.2-1.1,1.7c-0.5,0.5-1,1-1.5,1.5c-0.3,0.2-0.5,0.4-0.8,0.6c-0.3,0.2-0.6,0.4-0.9,0.6c-0.3,0.2-0.6,0.4-0.9,0.6
					c-0.3,0.2-0.6,0.3-0.9,0.5c-0.3,0.2-0.6,0.3-0.9,0.5c-0.3,0.2-0.6,0.3-0.9,0.5c-0.3,0.1-0.6,0.3-0.9,0.4
					c-0.3,0.1-0.6,0.3-0.9,0.4c-0.6,0.3-1.2,0.5-1.9,0.8c-0.6,0.2-1.2,0.5-1.9,0.7c-0.6,0.2-1.2,0.5-1.9,0.7
					c-0.6,0.2-1.3,0.4-1.9,0.6c-1.3,0.4-2.5,0.8-3.8,1.1c-1.2,0.4-2.5,0.7-3.8,1c-1.3,0.3-2.5,0.7-3.8,1c-1.2,0.3-2.5,0.6-3.8,0.9
					l-3.8,0.8l-1.9,0.4l-1.9,0.4l-1.9,0.4l-1.9,0.3L172,77l-1.4,0.2l-0.5,0.1c-0.4,0.1-0.8,0-1.1-0.2c-0.3-0.2-0.4-0.5-0.4-0.9
					c0-0.4,0.2-0.7,0.5-1c0.3-0.3,0.7-0.5,1.2-0.6h0.1l0.9-0.1l0.9-0.1l1.8-0.2l1.8-0.3c0.3,0,0.6-0.1,0.9-0.1
					c0.3-0.1,0.6-0.1,0.9-0.2c0.3,0,0.6-0.1,0.9-0.1c0.3-0.1,0.6-0.1,0.9-0.2l1.9-0.3c0.6-0.1,1.2-0.2,1.9-0.3
					c0.6-0.1,1.2-0.2,1.9-0.4c1.2-0.2,2.5-0.5,3.7-0.7c1.2-0.2,2.5-0.5,3.7-0.8c1.2-0.3,2.5-0.6,3.7-0.9c1.2-0.3,2.4-0.7,3.7-1.1
					c0.6-0.2,1.2-0.4,1.8-0.6c0.6-0.2,1.2-0.4,1.8-0.6c1.2-0.4,2.3-0.9,3.6-1.4c1.2-0.5,2.3-1,3.5-1.6c0.3-0.1,0.6-0.3,0.8-0.5
					c0.3-0.2,0.5-0.3,0.8-0.5c0.6-0.3,1.1-0.7,1.5-1.1c0.2-0.2,0.4-0.4,0.7-0.6c0.2-0.2,0.4-0.4,0.6-0.6c0.2-0.2,0.3-0.4,0.5-0.6
					c0.1-0.2,0.3-0.4,0.4-0.7l0.1-0.2c0,0,0.1-0.1,0.1-0.2l0.1-0.4c0.1-0.2,0.1-0.4,0.1-0.7c0-0.4,0-0.8-0.2-1.1
					c-0.1-0.2-0.2-0.3-0.3-0.5c-0.1-0.1-0.3-0.3-0.5-0.4c-0.2-0.1-0.4-0.2-0.6-0.3c-0.2-0.1-0.5-0.2-0.7-0.2
					c-0.3-0.1-0.5-0.1-0.8-0.2c-0.3,0-0.5-0.1-0.8-0.1c-0.3,0-0.6-0.1-0.8-0.1c-0.3,0-0.6,0-0.8,0c-0.6,0-1.2,0-1.8,0
					c-0.6,0-1.2,0-1.8,0c-0.6,0-1.2,0.1-1.8,0.1c-0.6,0-1.2,0.1-1.8,0.1l-3.7,0.3c-1.2,0.1-2.5,0.1-3.7,0.1c-0.3,0-0.6,0-0.9,0
					c-0.3,0-0.6,0-0.9,0c-0.3,0-0.6,0-0.9-0.1c-0.3,0-0.6-0.1-0.9-0.1c-0.3-0.1-0.6-0.2-0.9-0.3c-0.4-0.1-0.6-0.3-0.9-0.4
					c-0.3-0.2-0.5-0.5-0.6-0.8c-0.2-0.3-0.2-0.7-0.2-1c0-0.2,0-0.4,0.1-0.5c0-0.2,0.1-0.3,0.1-0.5c0.1-0.3,0.3-0.7,0.5-1
					c0.1-0.2,0.2-0.3,0.3-0.5c0.1-0.1,0.2-0.3,0.3-0.4c0.1-0.1,0.3-0.3,0.4-0.4c0.1-0.1,0.3-0.3,0.4-0.4c0.5-0.5,1.1-1,1.7-1.4
					c0.3-0.2,0.6-0.4,0.9-0.6c0.3-0.2,0.6-0.4,0.9-0.6c1.2-0.7,2.4-1.4,3.7-2c0.6-0.3,1.2-0.6,1.9-0.9c0.6-0.3,1.2-0.5,1.9-0.8
					c1.3-0.5,2.5-1,3.8-1.5c0.6-0.2,1.2-0.5,1.9-0.7c0.6-0.2,1.3-0.4,1.9-0.6c1.3-0.4,2.5-0.8,3.8-1.2c1.3-0.4,2.5-0.8,3.8-1.1
					c0.6-0.2,1.3-0.4,1.9-0.6c0.6-0.2,1.3-0.3,1.9-0.5c0.3-0.1,0.6-0.2,0.9-0.3c0.3-0.1,0.6-0.2,0.9-0.3l1-0.2l0.5-0.1l0.5-0.1
					c0.7-0.2,1.2-0.1,1.7,0.1c0.5,0.3,0.7,0.6,0.7,1.2c0,0.5-0.2,1-0.7,1.5c-0.5,0.5-1,0.8-1.7,1c0,0-0.1,0-0.1,0
					C225.7,40.1,225.6,40.1,225.6,40.2z"/>
				<path d="M225.5,56.2l-0.1,0.1l-0.1,0.1l-0.3,0.3l-0.5,0.5l-1,1.1l-0.9,1.1c-0.1,0.2-0.3,0.4-0.4,0.6c-0.1,0.2-0.3,0.4-0.4,0.6
					c-0.1,0.2-0.3,0.4-0.4,0.5c-0.1,0.2-0.3,0.4-0.4,0.6l-0.4,0.5l-0.3,0.6l-0.3,0.5c0,0.1-0.1,0.2-0.1,0.3c0,0.1-0.1,0.2-0.1,0.2
					l0,0c0.1,0,0.2-0.1,0.4-0.2l0.6-0.4c0.1-0.1,0.2-0.1,0.3-0.2c0.1-0.1,0.2-0.1,0.3-0.2c0.1-0.1,0.2-0.1,0.3-0.2l0.3-0.2l0.5-0.5
					c0.2-0.2,0.4-0.3,0.5-0.5c0.2-0.2,0.3-0.3,0.5-0.5c0.3-0.4,0.6-0.7,0.9-1.1c0.3-0.4,0.6-0.7,0.9-1.1l0.8-1.1
					c0.1-0.1,0.1-0.2,0.2-0.3c0.1-0.1,0.1-0.2,0.2-0.3l0.1-0.1l0-0.1l0,0l0.1-0.1l0.1-0.1l0.1-0.1l0-0.1c0.2-0.4,0.5-0.7,1-1
					c0.5-0.2,1-0.3,1.4-0.3c0.4,0,0.8,0.2,1,0.4c0.2,0.2,0.3,0.5,0.3,0.8c0,0.4-0.1,0.7-0.3,1c-0.2,0.3-0.3,0.6-0.4,0.7
					c-0.1,0.1-0.2,0.3-0.3,0.4c-0.1,0.1-0.2,0.3-0.3,0.4c-0.1,0.1-0.2,0.3-0.2,0.4c-0.1,0.1-0.2,0.3-0.2,0.4
					c-0.1,0.1-0.2,0.3-0.2,0.4c-0.1,0.1-0.1,0.3-0.2,0.4c-0.1,0.1-0.1,0.3-0.2,0.4c0,0.1-0.1,0.3-0.1,0.4l-0.1,0.3l0.3-0.2
					c0.1,0,0.2-0.1,0.2-0.1c0.1-0.1,0.1-0.1,0.2-0.2l0.4-0.3l0.5-0.4l0.4-0.3c0.3-0.2,0.6-0.5,0.8-0.7c0.3-0.2,0.5-0.5,0.8-0.7
					c0.5-0.5,1-1,1.5-1.5c0.1-0.1,0.3-0.3,0.4-0.4c0.1-0.1,0.2-0.3,0.4-0.4c0.1-0.1,0.1-0.2,0.2-0.2l0.2-0.2l0.2-0.2l0.1-0.1
					c0,0,0,0,0,0c0,0,0,0,0,0c0.2-0.2,0.4-0.4,0.7-0.5c0.3-0.1,0.6-0.1,0.8,0c0.2,0.1,0.4,0.2,0.5,0.4c0.1,0.2,0,0.4-0.1,0.6
					c-0.1,0.1-0.1,0.1-0.2,0.2l0,0l-0.2,0.2l-0.2,0.2l-0.4,0.4l-0.8,0.7l-1.7,1.5c-0.3,0.3-0.6,0.5-0.8,0.8
					c-0.3,0.2-0.6,0.5-0.9,0.8l-0.5,0.4l-0.4,0.4c-0.2,0.1-0.3,0.3-0.5,0.4c-0.2,0.1-0.3,0.3-0.5,0.4l-0.6,0.4l-0.3,0.2
					c-0.1,0.1-0.3,0.1-0.4,0.2c-0.1,0.1-0.3,0.1-0.5,0.2l-0.3,0.1l-0.4,0c-0.1,0-0.2,0-0.2-0.1c-0.1,0-0.1,0-0.2-0.1
					c-0.1-0.1-0.2-0.2-0.2-0.2c0,0-0.1-0.1-0.1-0.2c0,0,0-0.1,0-0.1c0,0,0-0.1,0-0.1l-0.1-0.3l0-0.3v-0.5c-0.2,0.1-0.3,0.2-0.3,0.3
					l-1.2,1c-0.5,0.4-0.9,0.7-1.3,1l-0.7,0.5l-0.8,0.5c-0.2,0.1-0.3,0.2-0.5,0.2c-0.1,0.1-0.3,0.1-0.5,0.2c-0.2,0.1-0.4,0.1-0.6,0.2
					l-0.4,0.1c-0.1,0-0.1,0-0.2,0l-0.4,0c-0.1,0-0.2,0-0.3,0c-0.1,0-0.3-0.1-0.5-0.2c-0.1-0.1-0.2-0.2-0.3-0.3l-0.1-0.3
					c0-0.1,0-0.2,0-0.2c0-0.1,0-0.2,0-0.2c0-0.1,0-0.1,0-0.2c0-0.1,0-0.1,0-0.2c0-0.1,0-0.2,0.1-0.3c0-0.1,0.1-0.2,0.1-0.3l0.3-0.6
					l0.3-0.6l0.3-0.6c0.1-0.2,0.2-0.4,0.3-0.6c0.1-0.2,0.2-0.4,0.3-0.6l1.4-2.4l0.7-1.2c0.1-0.1,0.1-0.2,0.2-0.3
					c0-0.1,0.1-0.2,0.2-0.3l0.2-0.3l0.1-0.1l0.1-0.2l0-0.1c0.2-0.4,0.6-0.7,1.1-1c0.5-0.3,1.1-0.3,1.6-0.3c0.5,0.1,0.9,0.3,1.1,0.6
					c0.2,0.3,0.2,0.7,0,1.1C225.9,55.8,225.7,56,225.5,56.2z"/>
				<path d="M234.6,55.3l4.6-4.7l0.1-0.1l0,0l0.3-0.3c0.3-0.4,0.8-0.6,1.3-0.7c0.5-0.1,1-0.1,1.4,0.1c0.4,0.2,0.6,0.4,0.7,0.7
					c0.1,0.3,0,0.6-0.2,0.9l-0.2,0.3l-0.7,0.8l-0.7,0.8l-1.4,1.6c-0.5,0.5-0.9,1-1.4,1.6c-0.4,0.5-0.9,1-1.3,1.5l-0.3,0.4
					c0.6-0.4,1.1-0.8,1.7-1.2c0.6-0.4,1.2-0.8,1.8-1.2c0.3-0.2,0.6-0.4,0.9-0.6c0.3-0.2,0.6-0.4,0.9-0.6l1-0.6l0.5-0.3l0.3-0.1
					l0.2-0.1h0l0,0c0.5-0.3,1-0.4,1.6-0.3c0.5,0,0.9,0.2,1.2,0.5c0.2,0.2,0.2,0.5,0.2,0.7c0,0.3-0.2,0.5-0.4,0.8
					c-0.2,0.2-0.4,0.3-0.4,0.4c-0.1,0-0.1,0.1-0.2,0.1c-0.2,0.1-0.3,0.2-0.3,0.2h0l0,0h0l0,0c-0.1,0.1-0.3,0.2-0.4,0.3
					c-0.1,0.1-0.2,0.2-0.3,0.3c-0.5,0.3-0.9,0.7-1.3,1.1c-0.2,0.2-0.4,0.4-0.6,0.6c-0.1,0.1-0.2,0.2-0.2,0.3
					c-0.1,0.1-0.1,0.2-0.2,0.3c-0.1,0.1-0.2,0.2-0.2,0.3c0,0-0.1,0.1-0.1,0.1c0.1,0,0.1,0,0.2,0c0.3,0,0.6-0.1,1-0.2
					c0.4-0.1,0.8-0.3,1.2-0.5c0.4-0.2,0.9-0.5,1.3-0.7c0.4-0.3,0.8-0.6,1.1-0.9l0.6-0.6l0.3-0.3l0.1-0.1l0.1-0.1l0,0c0,0,0,0,0,0
					c0.1-0.2,0.3-0.4,0.6-0.5c0.3-0.1,0.6-0.1,0.8-0.1c0.3,0,0.5,0.2,0.5,0.4c0.1,0.2,0.1,0.4-0.1,0.6c-0.1,0.1-0.2,0.2-0.3,0.3
					l-0.1,0.1l-0.4,0.3l-0.4,0.3l-0.8,0.6c-1.2,0.9-2.3,1.6-3.4,2.1c-1.1,0.5-2.1,0.8-3,0.8c-0.1,0-0.1,0-0.2,0c-0.1,0-0.1,0-0.2,0
					l-0.2,0c-0.1,0-0.2,0-0.3-0.1c-0.1-0.1-0.3-0.2-0.4-0.3c-0.1-0.1-0.1-0.2-0.2-0.3l0-0.3c0-0.1,0-0.2,0-0.3
					c0-0.1,0.1-0.2,0.1-0.2l0.1-0.4c-0.3,0.2-0.7,0.4-1,0.6c-0.3,0.2-0.7,0.4-1,0.6c-0.6,0.4-1.2,0.7-1.7,1.1
					c-0.6,0.4-1.1,0.7-1.7,1.1c-1.1,0.8-2.1,1.6-3,2.4c-0.2,0.2-0.4,0.3-0.6,0.4c-0.3,0.1-0.5,0.1-0.7,0c-0.2-0.1-0.3-0.2-0.4-0.3
					c-0.1-0.1-0.1-0.3,0-0.4l0-0.1c0.1-0.3,0.3-0.6,0.4-0.9c0.1-0.3,0.3-0.6,0.5-0.8c0.2-0.3,0.3-0.6,0.5-0.8
					c0.2-0.3,0.3-0.6,0.5-0.8c0.4-0.6,0.7-1.1,1.1-1.7c0.4-0.5,0.7-1.1,1.1-1.6l0.5-0.6c-0.1,0-0.3-0.1-0.4-0.2
					c-0.1-0.1-0.2-0.3-0.2-0.4C234.4,55.6,234.5,55.5,234.6,55.3z M242,59C242,59,242,59,242,59L242,59L242,59L242,59z"/>
			</g>
			<path d="M271.4,57.4l10.8-17.9c0.2-0.3,0.4-0.6,0.8-0.8l-19.2,0.8c-0.3,0-0.5-0.1-0.6-0.2c-0.1-0.1-0.2-0.3-0.1-0.5
				c0-0.2,0.2-0.4,0.4-0.5c0.2-0.1,0.5-0.2,0.7-0.2l58-4.4c0.6,0,1.2,0.1,1.5,0.4c0.4,0.3,0.5,0.7,0.4,1.2c0,0.2-0.1,0.5-0.3,0.7
				c-0.2,0.2-0.3,0.4-0.6,0.6c-0.2,0.2-0.5,0.3-0.8,0.4c-0.3,0.1-0.6,0.2-0.9,0.2l-0.1,0l-35.1,1.4c0.2,0.2,0.3,0.4,0.4,0.7
				c0,0.3,0,0.6-0.2,0.9l-0.1,0.1l-11.8,16.6l-1.6,2.3l-6.3,8.9c-0.1,0.2-0.3,0.3-0.5,0.4c-0.2,0.1-0.4,0.1-0.7,0.1
				c-0.2-0.1-0.3-0.1-0.4-0.3c-0.1-0.1,0-0.3,0.1-0.5l5-8.3L271.4,57.4z"/>
			<path d="M284.6,58.8L284.6,58.8c0.1,0.1,0.1,0.1,0.1,0.1c0,0,0.1,0,0.2,0c0,0,0.1,0,0.3,0c0,0,0.1,0,0.2,0c0.1,0,0.1,0,0.2-0.1
				l0.4-0.1l0.4-0.2c0.3-0.1,0.5-0.3,0.7-0.4c0.2-0.1,0.5-0.3,0.7-0.5c0.3-0.2,0.5-0.4,0.7-0.5l0.3-0.3c0.1-0.1,0.1-0.1,0.2-0.2
				c0,0,0.1-0.1,0.2-0.1c0.1,0,0.1-0.1,0.2-0.1c0,0,0.1-0.1,0.2-0.2c0.1,0,0.1-0.1,0.2-0.1c0,0,0.1-0.1,0.2-0.2l0.6-0.6
				c0.2-0.2,0.4-0.4,0.7-0.5c0.3-0.1,0.6-0.1,0.9,0c0.2,0.1,0.4,0.2,0.4,0.4c0,0.2,0,0.4-0.2,0.6l-0.1,0.1h0
				c-0.1,0.1-0.2,0.2-0.4,0.3c-0.1,0.1-0.2,0.2-0.4,0.3l-0.3,0.3l-0.8,0.6l-0.4,0.3l-0.8,0.6c-0.1,0.1-0.3,0.2-0.4,0.3
				c-0.1,0.1-0.3,0.2-0.4,0.3c-0.3,0.2-0.6,0.4-0.9,0.6l-0.5,0.3c-0.1,0-0.2,0.1-0.2,0.1c-0.1,0-0.2,0.1-0.3,0.1l-0.6,0.2
				c-0.2,0.1-0.4,0.1-0.7,0.2c-0.2,0-0.5,0.1-0.8,0.1c-0.3,0-0.5-0.1-0.8-0.1c0,0-0.1,0-0.1,0c0,0,0,0-0.1,0
				c-0.2,0.2-0.3,0.3-0.5,0.5c-0.2,0.2-0.4,0.3-0.6,0.5c-0.2,0.2-0.5,0.4-0.7,0.6c-0.2,0.2-0.5,0.4-0.8,0.6l-0.9,0.5
				c-0.2,0.1-0.3,0.2-0.5,0.2c-0.2,0.1-0.4,0.1-0.6,0.2c-0.3,0.1-0.5,0.1-0.7,0.1c-0.1,0-0.2,0-0.3,0l-0.1,0h-0.1c0,0,0,0-0.1,0
				c0,0,0,0-0.1,0c-0.2,0-0.4,0-0.7-0.1c-0.1,0-0.2-0.1-0.3-0.1c-0.1,0-0.2-0.1-0.3-0.2c-0.2-0.1-0.3-0.3-0.4-0.4
				c0-0.1-0.1-0.2-0.1-0.2c0-0.1,0-0.1,0-0.2c0-0.3,0-0.6,0.1-0.8c0-0.1,0.1-0.2,0.1-0.4c0-0.1,0.1-0.2,0.2-0.4
				c0.1-0.1,0.1-0.2,0.2-0.3c0-0.1,0.1-0.2,0.2-0.4l0.4-0.7l0.2-0.3c0.1-0.1,0.2-0.2,0.2-0.3l1-1.3l1.1-1.2c0.4-0.4,0.8-0.8,1.2-1.2
				c0.1-0.1,0.3-0.2,0.4-0.3c0.1-0.1,0.2-0.2,0.4-0.3l0.4-0.3c0.1-0.1,0.1-0.1,0.2-0.2c0.1,0,0.2-0.1,0.2-0.2l0.6-0.3
				c0.1,0,0.2-0.1,0.3-0.2c0.1-0.1,0.2-0.1,0.4-0.2c0.1,0,0.3-0.1,0.4-0.1c0.2,0,0.3-0.1,0.5-0.1c0.1,0,0.2,0,0.3,0
				c0.1,0,0.2,0,0.3,0c0.1,0,0.2,0,0.3,0h0.1l0,0h0.1c0.5,0,0.9,0.2,1.1,0.6c0.2,0.3,0.3,0.7,0.1,1.1l-0.1,0.2c0,0.1,0,0.2,0,0.4
				c0,0.1,0,0.2,0,0.2c0,0.1,0,0.2-0.1,0.2l-0.1,0.4c-0.1,0.1-0.1,0.3-0.2,0.4c-0.1,0.1-0.1,0.3-0.2,0.4l-0.4,0.7
				c-0.2,0.2-0.3,0.4-0.4,0.6C284.9,58.4,284.7,58.6,284.6,58.8C284.6,58.8,284.6,58.8,284.6,58.8z M281.1,57.3
				c-0.2,0.2-0.4,0.3-0.6,0.5c-0.2,0.2-0.4,0.3-0.6,0.5c-0.4,0.3-0.7,0.7-1,1.1l-0.2,0.3l-0.2,0.3c-0.1,0.1-0.1,0.2-0.2,0.3
				c-0.1,0.1-0.1,0.2-0.2,0.3c-0.1,0.1-0.1,0.2-0.2,0.3c0,0.1-0.1,0.2-0.1,0.3c-0.1,0.1-0.1,0.2-0.1,0.3c0,0.1-0.1,0.2-0.1,0.2
				c0,0.1-0.1,0.3-0.1,0.4c0,0.1,0,0.1,0,0.1l0,0l0,0h0.3c0,0,0.1,0,0.2,0c0.2-0.1,0.3-0.1,0.5-0.2l0.6-0.4c0.1-0.1,0.2-0.2,0.3-0.2
				l0.3-0.2l0.5-0.5c0.2-0.2,0.3-0.3,0.5-0.5c0.2-0.2,0.3-0.4,0.5-0.5c0.1-0.1,0.2-0.3,0.3-0.4c0.1-0.1,0.2-0.3,0.3-0.4
				c0-0.2-0.1-0.5-0.1-0.7c0-0.3,0-0.5,0.1-0.8l0-0.4l0-0.1c-0.1,0.1-0.3,0.2-0.4,0.3C281.4,57.1,281.3,57.2,281.1,57.3z"/>
			<path d="M294.4,58.8L294.4,58.8c0.1,0.1,0.1,0.1,0.1,0.1c0,0,0.1,0,0.2,0c0,0,0.1,0,0.3,0c0,0,0.1,0,0.2,0c0.1,0,0.1,0,0.2-0.1
				l0.4-0.1l0.4-0.2c0.3-0.1,0.5-0.3,0.7-0.4c0.2-0.1,0.5-0.3,0.7-0.5c0.3-0.2,0.5-0.4,0.7-0.5l0.3-0.3c0.1-0.1,0.1-0.1,0.2-0.2
				c0,0,0.1-0.1,0.1-0.1c0.1,0,0.1-0.1,0.2-0.1c0,0,0.1-0.1,0.2-0.2c0.1,0,0.1-0.1,0.2-0.1c0,0,0.1-0.1,0.2-0.2l0.6-0.6
				c0.2-0.2,0.4-0.4,0.7-0.5c0.3-0.1,0.6-0.1,0.9,0c0.2,0.1,0.4,0.2,0.4,0.4c0,0.2,0,0.4-0.2,0.6l-0.1,0.1h0
				c-0.1,0.1-0.2,0.2-0.4,0.3c-0.1,0.1-0.2,0.2-0.4,0.3l-0.3,0.3l-0.8,0.6l-0.4,0.3l-0.8,0.6c-0.1,0.1-0.3,0.2-0.4,0.3
				c-0.1,0.1-0.3,0.2-0.4,0.3c-0.3,0.2-0.6,0.4-0.9,0.6l-0.5,0.3c-0.1,0-0.2,0.1-0.2,0.1c-0.1,0-0.2,0.1-0.3,0.1l-0.6,0.2
				c-0.2,0.1-0.4,0.1-0.7,0.2c-0.2,0-0.5,0.1-0.8,0.1c-0.3,0-0.5-0.1-0.8-0.1c0,0-0.1,0-0.1,0c0,0,0,0-0.1,0
				c-0.2,0.2-0.3,0.3-0.5,0.5c-0.2,0.2-0.4,0.3-0.5,0.5c-0.2,0.2-0.5,0.4-0.7,0.6c-0.2,0.2-0.5,0.4-0.8,0.6l-0.9,0.5
				c-0.2,0.1-0.4,0.2-0.5,0.2c-0.2,0.1-0.4,0.1-0.6,0.2c-0.2,0.1-0.5,0.1-0.7,0.1c-0.1,0-0.2,0-0.3,0l-0.1,0h-0.1c0,0,0,0-0.1,0
				c0,0,0,0-0.1,0c-0.2,0-0.4,0-0.7-0.1c-0.1,0-0.2-0.1-0.3-0.1c-0.1,0-0.2-0.1-0.3-0.2c-0.2-0.1-0.3-0.3-0.4-0.4
				c0-0.1-0.1-0.2-0.1-0.2c0-0.1,0-0.1,0-0.2c0-0.3,0-0.6,0.1-0.8c0-0.1,0.1-0.2,0.1-0.4c0-0.1,0.1-0.2,0.2-0.4
				c0.1-0.1,0.1-0.2,0.2-0.3c0-0.1,0.1-0.2,0.2-0.4l0.4-0.7l0.2-0.3c0.1-0.1,0.1-0.2,0.2-0.3l1-1.3l1.1-1.2c0.4-0.4,0.8-0.8,1.2-1.2
				c0.1-0.1,0.3-0.2,0.4-0.3c0.1-0.1,0.2-0.2,0.4-0.3l0.4-0.3c0.1-0.1,0.1-0.1,0.2-0.2c0.1,0,0.2-0.1,0.2-0.2l0.6-0.3
				c0.1,0,0.2-0.1,0.3-0.2c0.1-0.1,0.2-0.1,0.4-0.2c0.1,0,0.3-0.1,0.4-0.1c0.2,0,0.3-0.1,0.5-0.1c0.1,0,0.2,0,0.3,0
				c0.1,0,0.2,0,0.3,0c0.1,0,0.2,0,0.3,0h0.1l0,0h0.1c0.5,0,0.9,0.2,1.1,0.6c0.2,0.3,0.3,0.7,0.1,1.1l-0.1,0.2c0,0.1,0,0.2,0,0.4
				c0,0.1,0,0.2,0,0.2c0,0.1,0,0.2-0.1,0.2l-0.1,0.4c-0.1,0.1-0.1,0.3-0.2,0.4c-0.1,0.1-0.1,0.3-0.2,0.4l-0.4,0.7
				c-0.2,0.2-0.3,0.4-0.4,0.6C294.7,58.4,294.5,58.6,294.4,58.8C294.4,58.8,294.4,58.8,294.4,58.8z M290.9,57.3
				c-0.2,0.2-0.4,0.3-0.6,0.5c-0.2,0.2-0.4,0.3-0.6,0.5c-0.4,0.3-0.7,0.7-1,1.1l-0.2,0.3l-0.2,0.3c-0.1,0.1-0.1,0.2-0.2,0.3
				c-0.1,0.1-0.1,0.2-0.2,0.3c-0.1,0.1-0.1,0.2-0.2,0.3c0,0.1-0.1,0.2-0.1,0.3c-0.1,0.1-0.1,0.2-0.1,0.3c0,0.1-0.1,0.2-0.1,0.2
				c0,0.1-0.1,0.3-0.1,0.4c0,0.1,0,0.1,0,0.1l0,0l0,0h0.3c0,0,0.1,0,0.2,0c0.2-0.1,0.3-0.1,0.5-0.2l0.6-0.4c0.1-0.1,0.2-0.2,0.3-0.2
				l0.3-0.2l0.5-0.5c0.2-0.2,0.3-0.3,0.5-0.5c0.2-0.2,0.3-0.4,0.5-0.5c0.1-0.1,0.2-0.3,0.3-0.4c0.1-0.1,0.2-0.3,0.3-0.4
				c0-0.2-0.1-0.5-0.1-0.7c0-0.3,0-0.5,0.1-0.8l0-0.4l0-0.1c-0.1,0.1-0.3,0.2-0.4,0.3C291.2,57.1,291.1,57.2,290.9,57.3z"/>
			<path d="M307,50.9l1.5-1.9c0.2-0.3,0.5-0.6,0.7-1c0.2-0.3,0.5-0.6,0.7-1c0.2-0.3,0.5-0.6,0.7-1c0.2-0.3,0.4-0.6,0.7-1l0.2-0.3
				c0,0,0.1-0.1,0.1-0.2l0.3-0.5l0,0L312,44l0.3-0.5c0,0,0,0,0,0c0,0,0,0,0,0c0,0,0,0,0-0.1c0,0,0,0,0-0.1l0.1-0.1c0,0,0,0,0,0
				c0,0,0,0,0,0l0.1-0.1c0.4-0.4,0.8-0.7,1.4-0.8c0.6-0.2,1.1-0.2,1.6,0c0.4,0.1,0.7,0.4,0.8,0.8c0.1,0.4,0,0.8-0.3,1.1l-0.1,0.1
				l-0.4,0.6l-0.5,0.7c-0.2,0.2-0.3,0.4-0.5,0.7c-0.2,0.2-0.3,0.5-0.5,0.7c-0.3,0.5-0.7,0.9-1,1.3c-0.3,0.4-0.7,0.9-1,1.3
				c-0.6,0.9-1.3,1.8-1.9,2.7c-0.6,0.9-1.3,1.8-1.9,2.7c-0.3,0.5-0.6,0.9-0.9,1.4c-0.3,0.4-0.6,0.9-0.9,1.4
				c-0.3,0.5-0.6,0.9-0.9,1.4c-0.3,0.5-0.5,0.9-0.8,1.4c-0.3,0.5-0.5,0.9-0.8,1.4c-0.2,0.4-0.5,0.9-0.7,1.4
				c-0.1,0.2-0.2,0.4-0.3,0.6l0.8-0.7c0.9-0.8,1.9-1.7,2.9-2.5l2.8-2.6c0.2-0.2,0.5-0.4,0.7-0.6c0.2-0.2,0.5-0.4,0.7-0.7l1.4-1.3
				c0.2-0.2,0.4-0.3,0.6-0.3c0.3,0,0.5,0,0.7,0.1c0.2,0.1,0.3,0.2,0.3,0.4c0,0.2-0.1,0.3-0.2,0.5l-1.4,1.3c-0.2,0.2-0.5,0.4-0.7,0.7
				c-0.2,0.2-0.5,0.4-0.7,0.6c-0.5,0.4-0.9,0.9-1.4,1.3c-0.5,0.4-1,0.9-1.4,1.3l-2.9,2.6l-1.5,1.3c-0.1,0.1-0.3,0.2-0.4,0.3
				c-0.1,0.1-0.3,0.2-0.4,0.3c-0.1,0.1-0.3,0.2-0.4,0.3c-0.1,0.1-0.3,0.2-0.4,0.3c-0.2,0.2-0.5,0.2-0.7,0.3c-0.3,0-0.5,0-0.6-0.2
				c-0.1-0.1-0.2-0.2-0.2-0.4c0-0.3,0-0.6,0.1-0.8c0-0.1,0-0.3,0.1-0.4c0-0.1,0.1-0.3,0.1-0.4c0.1-0.2,0.1-0.5,0.2-0.7
				c0.1-0.2,0.2-0.5,0.3-0.7c0.4-1,0.8-1.9,1.3-2.9c0.5-0.9,0.9-1.9,1.5-2.8l0.3-0.6c-0.4,0.4-0.7,0.8-1.1,1.2
				c-0.4,0.4-0.8,0.8-1.2,1.1c-0.2,0.1-0.3,0.3-0.5,0.4c-0.2,0.2-0.3,0.3-0.5,0.5c-0.2,0.1-0.3,0.3-0.5,0.4
				c-0.2,0.1-0.3,0.3-0.5,0.4c-0.3,0.3-0.7,0.6-1,0.9c-0.4,0.3-0.7,0.6-1.1,0.9l-0.6,0.4c-0.1,0.1-0.2,0.2-0.3,0.2
				c-0.1,0.1-0.2,0.1-0.3,0.2l-0.4,0.2l-0.4,0.1l-0.5,0.1c0,0-0.1,0-0.1,0c-0.1,0-0.1,0-0.2,0c-0.2,0-0.3,0-0.4,0
				c-0.2-0.1-0.3-0.1-0.4-0.2c-0.1-0.1-0.2-0.2-0.2-0.2l-0.1-0.2v-0.2c0-0.1,0-0.1,0-0.2c0-0.1,0-0.1,0-0.2l0.1-0.3
				c0.1-0.2,0.2-0.4,0.3-0.6l0.3-0.5l0.7-1c0.1-0.2,0.2-0.3,0.4-0.5c0.1-0.2,0.3-0.3,0.4-0.5c0.3-0.3,0.5-0.7,0.8-1
				c0.3-0.3,0.6-0.7,0.9-1l0.9-1l1-1c0.1-0.1,0.2-0.2,0.3-0.2c0.1-0.1,0.2-0.2,0.3-0.3c0.2-0.2,0.4-0.4,0.7-0.5
				c0.2-0.1,0.3-0.2,0.4-0.3l0.5-0.3l0.3-0.1l0.4-0.1l0.5-0.1c0,0,0.1,0,0.1,0c0.1,0,0.1,0,0.1,0h0.3c0.5-0.1,0.9,0,1.2,0.2
				c0.4-0.4,0.7-0.9,1.1-1.3C306.3,51.8,306.7,51.4,307,50.9z M303,55.1h-0.2c0,0-0.1,0-0.2,0c-0.1,0-0.2,0.1-0.3,0.1
				c-0.1,0-0.2,0.1-0.3,0.1c-0.2,0.1-0.4,0.2-0.6,0.3c-0.2,0.1-0.3,0.2-0.5,0.4l-0.5,0.4l-0.5,0.4c-0.2,0.1-0.3,0.3-0.5,0.4
				c-0.2,0.1-0.3,0.3-0.5,0.4c-0.2,0.1-0.3,0.3-0.5,0.4c-0.1,0.1-0.3,0.3-0.5,0.4l-0.9,0.9c-0.2,0.2-0.3,0.3-0.4,0.5
				c-0.1,0.1-0.3,0.3-0.4,0.5c-0.1,0.2-0.3,0.3-0.4,0.5c-0.1,0.2-0.2,0.3-0.3,0.5l-0.3,0.5c-0.1,0.2-0.2,0.3-0.3,0.5
				c-0.1,0.2-0.1,0.3-0.1,0.4c0,0,0,0.1,0,0.1c0,0,0,0.1,0,0.1l0,0c0,0,0,0,0.1,0c0,0,0.1,0,0.2,0l0.3-0.1l0.3-0.1l0.3-0.1
				c0.2-0.1,0.4-0.2,0.5-0.3l0.6-0.4c0.2-0.1,0.3-0.3,0.5-0.4c0.2-0.1,0.3-0.3,0.5-0.4c0.2-0.1,0.3-0.3,0.5-0.4
				c0.2-0.1,0.3-0.3,0.5-0.4l0.9-0.9l0.9-0.9c0.3-0.3,0.6-0.6,0.9-0.9c0.3-0.3,0.6-0.6,0.9-0.9c0.1-0.1,0.2-0.2,0.2-0.3
				c0.1-0.1,0.2-0.2,0.3-0.3c-0.1,0-0.2,0-0.4,0l0.6-0.6l-0.3,0.1l0.8-0.9c0.1-0.1,0.1-0.2,0.2-0.2c0.1-0.1,0.1-0.2,0.2-0.2
				c0.1,0.1,0.1,0.2,0.1,0.3c0.1-0.1,0.2-0.3,0.3-0.4c0.1-0.1,0.2-0.3,0.4-0.4c0,0,0.1,0.1,0.1,0.1c0,0,0.1,0.1,0.1,0.1l0.8-0.9
				l1.6-1.9c0.2-0.3,0.5-0.5,0.7-0.8c0.2-0.3,0.4-0.5,0.7-0.8l0.4-0.5c0.3-0.5,0.6-0.9,0.9-1.4c0.3-0.5,0.6-0.9,0.9-1.4l0.9-1.4
				l0.4-0.7l0.2-0.3l0.2-0.2l0.1-0.2l0.6,0.2c0,0,0,0,0,0c0,0,0,0,0,0l1.1,0.3l0,0l0.6,0.2l-3.3,3.7l-0.2,0.2l-0.8,1.2l-1.1,1.5
				l-0.8,0.8l-2.5,2.6l1-1.7c-0.3,0.3-0.5,0.6-0.8,0.9c-0.3,0.3-0.6,0.6-0.9,0.9l0.8-1.3c-0.2,0.2-0.4,0.5-0.7,0.7
				c-0.2,0.2-0.4,0.5-0.6,0.7l0,0c0.6-0.9,1.1-1.9,1.7-2.8c0.5-0.9,1.1-1.9,1.7-2.8c0.3-0.5,0.6-0.9,0.9-1.4
				c0.3-0.5,0.6-0.9,0.9-1.4c0.1-0.2,0.2-0.4,0.3-0.6c0.1-0.2,0.3-0.4,0.4-0.6l0.4-0.7l0,0l0.3-0.5c0,0,0.1-0.1,0.1-0.2l0,0l0.1-0.1
				c0,0,0,0,0.1-0.1l0.5,0.1l0.1-0.1c0.2-0.3,0.5-0.5,0.9-0.6c0.4-0.1,0.7-0.1,1,0c0.3,0.1,0.5,0.3,0.6,0.5c0.1,0.2,0,0.5-0.2,0.7
				l0,0l0.7,0.2l-0.4,0.4l-0.4,0.5l-0.9,0.9l-1.7,1.8l-0.2,0.2l-0.9,1.2c-0.6,0.9-1.3,1.8-1.9,2.7c-0.6,0.9-1.2,1.8-1.8,2.7
				c-0.3,0.5-0.6,0.9-0.9,1.4c-0.3,0.5-0.6,0.9-0.9,1.4c-0.6,0.9-1.1,1.8-1.6,2.8c-0.3,0.5-0.5,0.9-0.8,1.4
				c-0.2,0.5-0.5,0.9-0.7,1.4c-0.1,0.2-0.2,0.4-0.3,0.6c-0.1,0.2-0.2,0.4-0.2,0.6c0.1-0.1,0.2-0.2,0.3-0.3c0.1-0.1,0.2-0.2,0.3-0.2
				l-0.2,0.4l1.1-0.9c0.5-0.4,1-0.8,1.4-1.2c0.5-0.4,1-0.8,1.4-1.3l2.8-2.6l2.8-2.6c0.1-0.1,0.3-0.2,0.4-0.2c0.2,0,0.3,0,0.4,0
				c0.1,0.1,0.2,0.1,0.2,0.3c0,0.1-0.1,0.2-0.2,0.3c-0.5,0.4-0.9,0.9-1.4,1.3c-0.5,0.4-0.9,0.9-1.4,1.3c-0.5,0.4-0.9,0.9-1.4,1.3
				c-0.5,0.4-0.9,0.9-1.4,1.3c-0.5,0.4-1,0.9-1.4,1.3c-0.5,0.4-1,0.9-1.5,1.3c-0.2,0.2-0.5,0.4-0.7,0.6c-0.3,0.2-0.5,0.4-0.8,0.6
				c-0.1,0.1-0.3,0.2-0.4,0.3c-0.1,0.1-0.3,0.2-0.4,0.3l-0.2,0.1c0,0,0,0,0,0c0,0,0,0,0,0l-0.1,0l-0.6,0.5c-0.1,0.1-0.3,0.2-0.5,0.2
				c-0.2,0-0.3,0-0.4-0.1c-0.1-0.1-0.1-0.2-0.1-0.3c0-0.1,0-0.2,0-0.4c0-0.1,0-0.3,0.1-0.4c0-0.1,0-0.2,0.1-0.4
				c0-0.1,0.1-0.3,0.1-0.4c0.1-0.2,0.2-0.5,0.2-0.7c0.1-0.2,0.2-0.5,0.3-0.7c0.2-0.5,0.4-0.9,0.6-1.4c0.2-0.5,0.5-1,0.7-1.4
				c0.2-0.5,0.5-0.9,0.7-1.4c0.3-0.5,0.5-0.9,0.8-1.4c0.1-0.3,0.3-0.5,0.4-0.8c0.2-0.3,0.3-0.5,0.5-0.8l-0.9,0.9l0.6-1.1
				c-0.5,0.6-1.1,1.1-1.6,1.6c-0.5,0.5-1.1,1.1-1.6,1.6l-0.9,0.9l-0.9,0.9c-0.3,0.3-0.6,0.6-1,0.9c-0.3,0.3-0.7,0.6-1.1,0.8
				l-0.6,0.4c-0.1,0.1-0.2,0.1-0.3,0.2c-0.1,0.1-0.2,0.1-0.3,0.2l-0.4,0.2l-0.4,0.1c-0.1,0-0.3,0.1-0.4,0.1l-0.3,0c0,0-0.1,0-0.2,0
				c-0.1,0-0.1,0-0.2,0c-0.1,0-0.2-0.1-0.3-0.1c-0.1,0-0.1-0.1-0.1-0.1c0,0,0-0.1-0.1-0.1c0-0.1,0-0.1-0.1-0.2l0-0.2
				c0-0.1,0-0.2,0.1-0.3c0-0.1,0.1-0.2,0.1-0.3c0.1-0.3,0.3-0.7,0.6-1c0.1-0.2,0.2-0.3,0.3-0.5c0.1-0.2,0.3-0.3,0.4-0.5l0.8-1
				c0.3-0.3,0.5-0.6,0.8-0.9c0.3-0.3,0.6-0.6,0.9-0.9c0.2-0.2,0.3-0.3,0.4-0.5c0.1-0.1,0.3-0.3,0.4-0.5c0.2-0.2,0.3-0.3,0.5-0.5
				c0.2-0.1,0.3-0.3,0.5-0.5c0.1-0.1,0.2-0.2,0.3-0.2c0.1-0.1,0.2-0.1,0.3-0.2l0.6-0.5c0.1-0.1,0.3-0.2,0.4-0.2
				c0.1-0.1,0.3-0.1,0.4-0.2c0.1,0,0.2-0.1,0.3-0.1c0.1,0,0.2-0.1,0.3-0.1l0.4-0.1c0,0,0.1,0,0.2,0h0.2c0.5,0,0.8,0.1,1,0.4
				c0.1-0.1,0.2-0.2,0.3-0.3c0.1-0.1,0.2-0.2,0.3-0.3c0,0,0.1,0.1,0.1,0.1c0,0,0.1,0,0.1,0.1c0.4-0.4,0.7-0.9,1.1-1.3
				c0.3-0.4,0.7-0.9,1.1-1.3c0.3-0.3,0.5-0.6,0.8-0.9c0.2-0.3,0.5-0.6,0.7-0.9l0.7-0.9c0.1-0.2,0.2-0.3,0.4-0.5
				c0.1-0.1,0.2-0.3,0.4-0.5c0.2-0.3,0.5-0.6,0.7-1c0.2-0.3,0.5-0.6,0.7-1l0.7-0.9l0.3-0.5l0,0l0.3-0.4l0,0l0.6,0.2
				c0,0,0-0.1,0.1-0.1l0,0c0.1-0.1,0.2-0.2,0.4-0.3c0.2-0.1,0.3-0.1,0.5,0c0.2,0,0.2,0.1,0.3,0.2c0,0.1,0,0.2-0.1,0.4l0,0h0l0,0
				l0.6,0.2l-0.4,0.6l-0.5,0.7l-1,1.3l-1.1,1.5l-2.4,2.6c-0.4,0.7-0.9,1.3-1.3,2c-0.4,0.7-0.9,1.3-1.3,2c-0.6,0.9-1.2,1.8-1.7,2.7
				c-0.6,0.9-1.1,1.8-1.6,2.8c-0.3,0.5-0.5,0.9-0.8,1.4c-0.2,0.5-0.5,0.9-0.7,1.4c-0.2,0.5-0.4,0.9-0.5,1.4c0,0-0.1,0.1-0.1,0.2
				c0.1-0.1,0.2-0.1,0.2-0.2c0.1-0.1,0.2-0.1,0.2-0.2l-0.1,0.2c0,0-0.1,0.1-0.1,0.2l0.3-0.2l0.3-0.3l-0.1,0.4c0,0,0,0,0,0
				c0,0,0,0,0,0l0.1,0c0.5-0.4,1-0.9,1.5-1.2c0.5-0.4,1-0.9,1.4-1.3c0.5-0.4,1-0.8,1.4-1.3c0.5-0.4,1-0.9,1.4-1.3
				c0.5-0.4,0.9-0.9,1.4-1.3c0.5-0.4,1-0.9,1.5-1.4c0.5-0.5,1-0.9,1.4-1.4c0.1-0.1,0.3-0.2,0.4-0.1c0.1,0.1,0.1,0.2,0,0.3
				c-0.5,0.5-1,0.9-1.5,1.4c-0.5,0.5-1,0.9-1.4,1.4l-2.8,2.6c-0.5,0.4-1,0.9-1.4,1.3c-0.5,0.4-1,0.9-1.5,1.3c-0.5,0.4-1,0.8-1.5,1.2
				l-0.7,0.5c0,0.1,0,0.1-0.1,0.2c0,0.1,0,0.1,0,0.2c0,0,0,0,0,0l-0.3,0l0,0c0,0,0,0.1,0,0.1l-0.1,0l-0.3,0.2
				c-0.1,0.1-0.3,0.1-0.4,0c-0.1,0-0.1-0.1-0.1-0.1l0-0.3l-0.1,0l0.1-0.1l-0.2,0l0.3-0.2l0-0.1c0-0.1,0-0.2,0.1-0.4
				c0-0.1,0.1-0.2,0.1-0.4c0.1-0.2,0.2-0.5,0.2-0.7c0.1-0.2,0.2-0.5,0.3-0.7c0.2-0.5,0.4-1,0.6-1.4c0.2-0.5,0.5-0.9,0.7-1.4
				c0.5-1,1-1.9,1.6-2.8c0.3-0.5,0.5-0.9,0.8-1.4c0.3-0.5,0.6-0.9,0.8-1.4l0.2-0.3c-0.2,0.2-0.4,0.3-0.5,0.5
				c-0.2,0.2-0.3,0.4-0.5,0.5c-0.1,0.1-0.1,0.1-0.2,0.2c-0.1,0.1-0.1,0.1-0.2,0.2c0.1-0.2,0.2-0.4,0.3-0.6c0.1-0.2,0.2-0.4,0.4-0.6
				c0-0.1,0-0.1,0.1-0.1c-0.1,0.1-0.3,0.3-0.4,0.4c-0.1,0.1-0.2,0.3-0.4,0.4c-0.1,0.1-0.1,0.1-0.2,0.2c0,0.1-0.1,0.1-0.2,0.2
				l0.1-0.2c-0.2,0.2-0.5,0.4-0.8,0.6c-0.4,0.5-0.9,0.9-1.3,1.4c-0.5,0.5-0.9,0.9-1.4,1.4c-0.2,0.2-0.3,0.3-0.5,0.4
				c-0.1,0.1-0.3,0.3-0.5,0.5l-0.9,0.9c-0.3,0.3-0.7,0.6-1,0.9c-0.3,0.3-0.7,0.6-1.1,0.8l-0.6,0.4l-0.6,0.4L296,63l-0.3,0.1
				c-0.1,0-0.2,0.1-0.4,0.1c0,0-0.1,0-0.2,0h-0.2l-0.2-0.1l-0.1-0.1c0-0.1-0.1-0.2-0.1-0.3c0-0.1,0-0.1,0-0.2c0,0,0-0.1,0-0.1
				c0-0.1,0.1-0.2,0.1-0.3c0.1-0.3,0.3-0.6,0.6-1c0.1-0.2,0.2-0.3,0.3-0.5c0.1-0.2,0.2-0.3,0.4-0.5c0.1-0.2,0.2-0.3,0.4-0.5
				c0.1-0.1,0.3-0.3,0.4-0.5c0.3-0.3,0.5-0.6,0.8-0.9c0.3-0.3,0.6-0.6,0.9-0.9c0.3-0.3,0.6-0.6,0.9-0.9l0.5-0.4l0.5-0.4
				c0.1-0.1,0.2-0.1,0.3-0.2c0.1-0.1,0.2-0.1,0.3-0.2l0.6-0.4c0.1-0.1,0.2-0.1,0.4-0.2c0.1-0.1,0.2-0.1,0.4-0.2l0.5-0.1
				c0.1,0,0.2,0,0.3,0c0,0,0.1,0,0.2,0h0.2c0.2,0,0.3,0,0.4,0.1c0.1,0.1,0.1,0.2,0,0.3c0,0.1-0.1,0.2-0.3,0.3
				C303.3,55,303.1,55.1,303,55.1z M302.7,55.6L302.7,55.6C302.7,55.6,302.7,55.6,302.7,55.6c0.1,0,0.1,0,0.1,0L302.7,55.6l-0.2,0
				l-0.3,0.1l-0.5,0.3l-0.5,0.3c-0.2,0.1-0.4,0.3-0.5,0.4c-0.2,0.1-0.3,0.2-0.5,0.4l-1,0.8c-0.3,0.3-0.6,0.6-0.9,0.9
				c-0.3,0.3-0.6,0.6-0.9,0.9c-0.2,0.1-0.3,0.3-0.4,0.4c-0.1,0.2-0.3,0.3-0.4,0.5c-0.1,0.2-0.3,0.3-0.4,0.5
				c-0.1,0.2-0.2,0.3-0.3,0.5l-0.3,0.5l-0.2,0.4l-0.1,0.4l0,0.1h0.1l0.2-0.1l0.2-0.1l0.3-0.1c0.2-0.1,0.3-0.2,0.5-0.3
				c0.1-0.1,0.2-0.1,0.3-0.2c0.1-0.1,0.2-0.1,0.2-0.2l1-0.8c0.3-0.3,0.6-0.5,0.9-0.9l0.9-0.9c0.1-0.1,0.3-0.3,0.4-0.4
				c0.1-0.1,0.3-0.3,0.4-0.4c0.4-0.4,0.7-0.8,1.1-1.1c0.4-0.4,0.7-0.8,1.1-1.2c-0.1,0-0.1,0-0.2,0c0,0,0,0,0,0c0,0,0,0,0,0l0.1,0
				l0.1,0h0c0,0,0,0,0,0c0,0,0,0,0,0l0.3-0.3H303C302.9,55.6,302.8,55.6,302.7,55.6z M295.5,62.7L295.5,62.7L295.5,62.7
				c-0.1-0.1-0.1-0.1-0.2-0.1h-0.1l0,0c0,0,0.1,0,0.2,0h0C295.5,62.6,295.5,62.6,295.5,62.7z M302.5,56L302.5,56c0.1,0,0.2,0,0.2,0
				c0,0,0,0,0,0h0c0.1-0.1,0.1-0.1,0.1-0.1c0,0,0,0-0.1,0C302.8,55.9,302.7,56,302.5,56c-0.1,0-0.3,0.1-0.4,0.2
				c-0.1,0-0.2,0.1-0.3,0.1c-0.1,0.1-0.2,0.1-0.3,0.2l-1.1,0.7l-1,0.8c-0.3,0.3-0.6,0.5-0.9,0.8c-0.3,0.3-0.6,0.6-0.9,0.9
				c-0.2,0.1-0.3,0.3-0.4,0.4c-0.1,0.1-0.3,0.3-0.4,0.4l-0.7,0.9l-0.3,0.5l-0.2,0.4l-0.1,0.2l0,0c0.1,0,0.2-0.1,0.2-0.1
				c0.1,0,0.2-0.1,0.2-0.1c0.1,0,0.2-0.1,0.3-0.1c0.1,0,0.2-0.1,0.3-0.2l0.5-0.3c0.2-0.1,0.3-0.3,0.5-0.4c0.2-0.1,0.3-0.3,0.5-0.4
				c0.2-0.1,0.3-0.3,0.5-0.4c0.2-0.1,0.3-0.3,0.5-0.4l0.9-0.9c0.1-0.1,0.3-0.3,0.4-0.4c0.1-0.1,0.3-0.3,0.4-0.5
				c0.3-0.4,0.7-0.7,1-1.1c0.3-0.4,0.7-0.7,1-1.1C302.7,56.1,302.6,56.1,302.5,56z M305.4,54.6L305.4,54.6L305.4,54.6L305.4,54.6z"
				/>
			<path d="M340.2,55.2l4.5-4.7l0.1-0.1l0,0l0.3-0.3c0.3-0.4,0.8-0.6,1.3-0.7c0.5-0.1,1-0.1,1.4,0.1c0.4,0.2,0.6,0.4,0.7,0.7
				c0.1,0.3,0,0.6-0.2,0.9l-0.2,0.4l-0.7,0.8l-0.7,0.8l-1.3,1.6c-0.5,0.5-0.9,1-1.3,1.6c-0.4,0.5-0.9,1-1.3,1.6l-0.3,0.4
				c0.6-0.4,1.1-0.8,1.7-1.2c0.6-0.4,1.2-0.8,1.8-1.2c0.3-0.2,0.6-0.4,0.9-0.6c0.3-0.2,0.6-0.4,0.9-0.6l1-0.6l0.5-0.3l0.3-0.1
				l0.2-0.1h0l0,0c0.5-0.3,1-0.4,1.6-0.4c0.5,0,0.9,0.2,1.2,0.5c0.2,0.2,0.2,0.5,0.2,0.7c0,0.3-0.2,0.5-0.4,0.8
				c-0.2,0.2-0.4,0.3-0.4,0.4c-0.1,0-0.1,0.1-0.2,0.1c-0.2,0.1-0.3,0.2-0.3,0.2h0l0,0h0l0,0c-0.1,0.1-0.3,0.2-0.4,0.3
				c-0.1,0.1-0.2,0.2-0.3,0.3c-0.5,0.3-0.9,0.7-1.3,1.1c-0.2,0.2-0.4,0.4-0.6,0.6c-0.1,0.1-0.2,0.2-0.2,0.3
				c-0.1,0.1-0.1,0.2-0.2,0.3c-0.1,0.1-0.2,0.2-0.2,0.3c0,0-0.1,0.1-0.1,0.1c0.1,0,0.1,0,0.2,0c0.3,0,0.6-0.1,1-0.2
				c0.4-0.1,0.8-0.3,1.2-0.5c0.4-0.2,0.9-0.5,1.3-0.7c0.4-0.3,0.8-0.6,1.1-0.9l0.6-0.6l0.3-0.3l0.1-0.1l0.1-0.1l0,0c0,0,0,0,0,0
				c0.1-0.2,0.3-0.4,0.6-0.5c0.3-0.1,0.6-0.2,0.8-0.1c0.3,0,0.5,0.2,0.6,0.4c0.1,0.2,0.1,0.4-0.1,0.6c-0.1,0.1-0.2,0.2-0.3,0.3
				l-0.1,0.1l-0.4,0.3l-0.4,0.3l-0.8,0.6c-1.2,0.9-2.3,1.6-3.4,2.1c-1.1,0.5-2.1,0.8-3,0.8c-0.1,0-0.1,0-0.2,0c-0.1,0-0.1,0-0.2,0
				l-0.2,0c-0.1,0-0.1,0-0.3,0c-0.1-0.1-0.3-0.2-0.4-0.3c-0.1-0.1-0.1-0.2-0.2-0.3l0-0.3c0-0.1,0-0.2,0-0.3c0-0.1,0.1-0.2,0.1-0.2
				l0.1-0.4c-0.4,0.2-0.7,0.4-1,0.6c-0.3,0.2-0.7,0.4-1,0.6c-0.6,0.4-1.2,0.7-1.7,1.1c-0.6,0.4-1.1,0.7-1.7,1.1
				c-1.1,0.8-2.1,1.6-3,2.5c-0.2,0.2-0.4,0.3-0.6,0.4c-0.3,0.1-0.5,0.1-0.7,0c-0.2-0.1-0.3-0.2-0.4-0.3c-0.1-0.1-0.1-0.3,0-0.4
				l0-0.1c0.1-0.3,0.3-0.6,0.4-0.9c0.1-0.3,0.3-0.6,0.4-0.8c0.2-0.3,0.3-0.6,0.5-0.8c0.2-0.3,0.3-0.6,0.5-0.8
				c0.4-0.6,0.7-1.1,1.1-1.7c0.4-0.6,0.7-1.1,1.1-1.7l0.5-0.6c-0.1,0-0.3-0.1-0.4-0.2c-0.1-0.1-0.2-0.3-0.2-0.4
				C340,55.5,340.1,55.4,340.2,55.2z M347.7,58.8C347.7,58.8,347.7,58.8,347.7,58.8L347.7,58.8L347.7,58.8L347.7,58.8z"/>
			<path d="M356.7,56l-0.1,0.1l-0.1,0.1l-0.2,0.3l-0.2,0.3l-0.2,0.3c-0.2,0.2-0.3,0.4-0.5,0.6c-0.2,0.2-0.3,0.4-0.4,0.6
				c-0.2,0.2-0.3,0.4-0.5,0.6c-0.1,0.2-0.3,0.4-0.4,0.6l-0.4,0.6l-0.4,0.6l-0.4,0.6c-0.2,0.2-0.3,0.4-0.4,0.6
				c-0.1,0.1-0.2,0.2-0.2,0.3c-0.1,0.1-0.1,0.2-0.2,0.3l0.4-0.3l0.7-0.5l0.6-0.5l0.7-0.5l0.6-0.5l0.6-0.5l1.3-1l0.6-0.5l0.6-0.5
				l0.3-0.3l0.3-0.2l0.6-0.5l0.3-0.2l0.3-0.3c0.2-0.2,0.4-0.3,0.6-0.5c0.2-0.2,0.4-0.3,0.6-0.5c0.2-0.2,0.5-0.3,0.8-0.4
				c0.3-0.1,0.6,0,0.8,0.1c0.2,0.1,0.3,0.3,0.3,0.5c0,0.2-0.1,0.4-0.3,0.6c0,0,0,0.1-0.1,0.1c-0.2,0.2-0.4,0.3-0.7,0.5
				c-0.2,0.1-0.4,0.3-0.7,0.5l-0.3,0.2l-0.3,0.2c-0.1,0.1-0.2,0.2-0.3,0.2c-0.1,0.1-0.2,0.2-0.3,0.3l-0.3,0.2l-0.3,0.2l-0.6,0.5
				l-0.6,0.5l-1.9,1.5l-1.2,1l-1.3,1c-0.2,0.2-0.4,0.3-0.6,0.5c-0.2,0.2-0.4,0.3-0.6,0.5l-0.3,0.3l-0.4,0.3l-0.3,0.2l-0.1,0l-0.1,0
				c-0.1,0-0.1,0-0.1,0l0,0l0,0h-0.1c0,0,0,0-0.1,0c0,0-0.1,0-0.1,0c0,0-0.1,0-0.1,0c0,0,0,0-0.1,0h-0.2l-0.4-0.1
				c-0.1-0.1-0.2-0.1-0.3-0.2c0,0-0.1-0.1-0.1-0.1c0,0-0.1-0.1-0.1-0.1l-0.1-0.2c0-0.1,0-0.1,0-0.2c0,0,0-0.1,0-0.1l0-0.2
				c0-0.1,0-0.2,0-0.2c0-0.1,0-0.1,0-0.2c0-0.1,0.1-0.2,0.1-0.4c0-0.1,0.1-0.2,0.1-0.3c0.1-0.2,0.2-0.4,0.3-0.6
				c0.1-0.2,0.2-0.4,0.3-0.6l0.3-0.6l0.3-0.6l1.2-2.5l0.6-1.2l0.3-0.6l0.3-0.6l0,0c0.2-0.4,0.6-0.8,1.1-1c0.5-0.3,1.1-0.4,1.6-0.3
				c0.6,0.1,0.9,0.2,1.2,0.6c0.2,0.3,0.3,0.7,0.1,1.2c0,0.1-0.1,0.2-0.2,0.2C356.9,55.8,356.8,55.9,356.7,56z M357.4,48.9l0.6-1.3
				c0.2-0.4,0.6-0.8,1.1-1.1c0.5-0.3,1.1-0.4,1.6-0.4c0.6,0,1,0.2,1.2,0.6c0.2,0.3,0.3,0.7,0.1,1.1c-0.1,0.2-0.2,0.4-0.4,0.5
				l-1.2,1.2c-0.3,0.3-0.7,0.6-1.2,0.7c-0.5,0.1-0.9,0.1-1.3-0.1c-0.3-0.1-0.5-0.3-0.6-0.6C357.3,49.4,357.3,49.2,357.4,48.9z"/>
			<path d="M358.7,62.1c-0.1,0.2-0.2,0.4-0.3,0.6c-0.1,0.2-0.2,0.4-0.2,0.5c0,0.1-0.1,0.2-0.1,0.3c0,0.1,0,0.2,0,0.2
				c0,0.1,0,0.1,0,0.2l0,0.2l0,0.1c0,0,0,0,0,0h0.2c0.1,0,0.3,0,0.5-0.1c0.1,0,0.2-0.1,0.3-0.1c0.1,0,0.2-0.1,0.3-0.1
				c0.2-0.1,0.4-0.2,0.7-0.3c0.2-0.1,0.5-0.3,0.7-0.4c0.2-0.1,0.5-0.3,0.7-0.4c0.2-0.1,0.5-0.3,0.7-0.4l1.3-0.9
				c0.2-0.2,0.4-0.3,0.6-0.5c0.2-0.2,0.4-0.3,0.6-0.5l1.3-1c0.4-0.3,0.8-0.7,1.2-1c0.4-0.3,0.8-0.7,1.2-1.1l0.6-0.5l0.6-0.5l0.6-0.5
				l0.4-0.4l0.1-0.1l0,0c0.2-0.2,0.5-0.4,0.8-0.4c0.3-0.1,0.6,0,0.9,0.1c0.3,0.1,0.4,0.3,0.4,0.5c0,0.2-0.1,0.4-0.3,0.7l-0.1,0.1
				l-0.6,0.6l-0.6,0.5l-0.6,0.5c-0.1,0.1-0.2,0.2-0.3,0.3c-0.1,0.1-0.2,0.2-0.3,0.3c-0.4,0.4-0.9,0.7-1.3,1.1
				c-0.4,0.3-0.8,0.7-1.3,1c-0.2,0.2-0.4,0.3-0.7,0.5c-0.2,0.2-0.4,0.4-0.7,0.5l-1.3,1c-0.2,0.2-0.5,0.3-0.7,0.5
				c-0.2,0.2-0.5,0.3-0.7,0.5c-0.2,0.2-0.5,0.3-0.7,0.5c-0.2,0.2-0.5,0.3-0.8,0.5c-0.5,0.3-1.1,0.6-1.7,0.9l-0.5,0.2l-0.5,0.2
				l-0.5,0.1c-0.1,0-0.2,0.1-0.3,0.1c-0.1,0-0.2,0-0.3,0c-0.1,0-0.2,0-0.3,0h-0.3c0,0,0,0,0,0c0,0,0,0,0,0c-0.3,0-0.5-0.1-0.7-0.2
				c-0.2-0.1-0.4-0.2-0.5-0.4c-0.1-0.1-0.1-0.1-0.1-0.2c0-0.1-0.1-0.1-0.1-0.2c0-0.1,0-0.1-0.1-0.2c0-0.1,0-0.1-0.1-0.2l0-0.4
				c0-0.1,0-0.2,0-0.4c0-0.1,0-0.3,0.1-0.4c0-0.2,0.1-0.5,0.1-0.7c0.1-0.2,0.1-0.5,0.2-0.7c0-0.1,0.1-0.2,0.1-0.3
				c0-0.1,0.1-0.2,0.1-0.3l0.3-0.7c0.2-0.5,0.4-0.9,0.7-1.3c0.2-0.4,0.5-0.9,0.8-1.3c0.5-0.9,1.2-1.8,1.9-2.6
				c0.2-0.2,0.4-0.4,0.6-0.6c0.2-0.2,0.4-0.4,0.6-0.6l0.4-0.3l0.4-0.3c0.1-0.1,0.3-0.2,0.4-0.3c0.1-0.1,0.3-0.2,0.5-0.3
				c0.2-0.1,0.4-0.2,0.6-0.3c0.1-0.1,0.2-0.1,0.3-0.2c0.1-0.1,0.2-0.1,0.4-0.2c0.3-0.1,0.6-0.2,1-0.3c0,0,0.1,0,0.1,0
				c0.1,0,0.1,0,0.1,0c0,0,0.1,0,0.2,0h0.3c0.1,0,0.1,0,0.2,0c0.1,0,0.2,0,0.4,0c0.2,0,0.5,0.1,0.7,0.3c0.2,0.1,0.4,0.3,0.5,0.4
				c0,0,0.1,0.1,0.1,0.1c0,0,0,0.1,0,0.1L368,53l0.1,0.4l0,0.3l0,0.3c0,0.1,0,0.2,0,0.2c0,0.1-0.1,0.2-0.1,0.2
				c-0.1,0.3-0.2,0.6-0.4,0.8c-0.1,0.1-0.2,0.3-0.2,0.4c-0.1,0.1-0.1,0.2-0.2,0.3c-0.1,0.2-0.3,0.4-0.5,0.7
				c-0.1,0.1-0.2,0.2-0.3,0.3l-0.3,0.3c-0.1,0.2-0.3,0.4-0.5,0.6l-0.3,0.3l-0.1,0.2l-0.1,0.2c-0.4,0.4-0.9,0.9-1.4,1.2
				c-0.1,0.1-0.3,0.2-0.4,0.3c-0.1,0.1-0.3,0.2-0.4,0.3l-0.5,0.3l-0.6,0.3l-0.6,0.2c-0.2,0.1-0.5,0.1-0.8,0.1h-0.4
				c-0.2,0-0.3-0.1-0.4-0.1c-0.1,0-0.1,0-0.1,0l-0.3,0.5L358.7,62.1z M360.7,59.5c0,0,0,0.1,0,0.1C360.8,59.6,360.8,59.6,360.7,59.5
				c0.1,0.1,0.1,0.1,0.2,0c0.2-0.1,0.4-0.2,0.5-0.3c0.1-0.1,0.3-0.2,0.5-0.4c0.2-0.2,0.3-0.3,0.4-0.5c0.1-0.2,0.2-0.3,0.3-0.5
				c0,0,0,0,0,0c0,0,0,0,0-0.1l0-0.1l0.1-0.1l0.2-0.3l0.3-0.6c0,0,0-0.1,0-0.1c0,0,0,0,0-0.1l-0.1,0.1c-0.2,0.2-0.4,0.3-0.5,0.5
				c-0.2,0.2-0.3,0.3-0.5,0.5l-0.5,0.5l-0.5,0.5l-0.3,0.4c0,0.1,0,0.1-0.1,0.2C360.7,59.4,360.7,59.4,360.7,59.5z"/>
			<path d="M374.9,54.3l-2.1,2.2l-1,1l0.3-0.3c0.2-0.2,0.4-0.3,0.7-0.5c0.2-0.1,0.5-0.3,0.7-0.5c0.2-0.2,0.5-0.3,0.7-0.5
				c0.2-0.1,0.5-0.3,0.8-0.5l0.4-0.2l0.4-0.2c0.1,0,0.2-0.1,0.3-0.1l0.3-0.1l0.2-0.1l0.3-0.1l0,0h0l0.1,0h0c0,0,0.1,0,0.1,0l0.1,0
				h0.1c0.1,0,0.3,0,0.4,0h0.1c0,0,0.1,0,0.1,0h0.1h0c0,0,0,0,0.1,0c0,0,0,0,0.1,0c0.1,0,0.2,0.1,0.3,0.1l0.2,0.1
				c0.1,0,0.1,0.1,0.2,0.1c0,0,0.1,0.1,0.1,0.1c0.1,0.1,0.1,0.1,0.1,0.2c0,0,0,0.1,0,0.1c0,0,0,0,0,0.1l0,0.3l0,0.2l-0.1,0.4
				l-0.1,0.4c0,0.1-0.1,0.2-0.1,0.3c0,0.1-0.1,0.2-0.1,0.3l-0.3,0.6l-0.6,1.2l-0.6,1.2l0,0l0.1-0.1c0.2-0.2,0.4-0.3,0.6-0.5
				c0.2-0.1,0.4-0.3,0.6-0.5c0.4-0.3,0.8-0.7,1.1-1c0.4-0.3,0.7-0.7,1.1-1l1.1-1l0.5-0.5l0.3-0.3l0.2-0.3c0.2-0.2,0.5-0.4,0.8-0.4
				c0.3-0.1,0.6-0.1,0.9,0c0.3,0.1,0.4,0.2,0.4,0.5c0,0.2-0.1,0.4-0.3,0.6c0,0,0,0,0,0.1c0,0,0,0,0,0h0l-2.3,2.1
				c-0.4,0.3-0.8,0.7-1.2,1c-0.4,0.3-0.8,0.7-1.2,1l-1.2,1c-0.1,0.1-0.2,0.2-0.3,0.2c-0.1,0.1-0.2,0.2-0.3,0.2
				c-0.1,0-0.1,0.1-0.2,0.1c-0.1,0-0.1,0.1-0.2,0.1l-0.4,0.3l-0.5,0.3c-0.1,0.1-0.2,0.1-0.3,0.2l-0.3,0.1l-0.4,0.1
				c-0.1,0-0.2,0-0.3,0c-0.1,0-0.2,0-0.3,0l-0.2-0.1c-0.1-0.1-0.1-0.1-0.1-0.1c-0.1,0-0.1-0.1-0.2-0.2l-0.1-0.2l0-0.3l0-0.2l0-0.4
				c0-0.1,0-0.1,0-0.2c0-0.1,0-0.1,0-0.2c0-0.1,0-0.2,0.1-0.3c0-0.1,0.1-0.2,0.1-0.3l0.3-1.2l0.3-1.2l0-0.1l-0.2,0.1l-1.4,0.8
				l-1.3,0.8c-0.9,0.6-1.8,1.1-2.7,1.7c-0.9,0.6-1.8,1.2-2.6,1.8l-1.3,0.9l-0.5,0.4l-0.3,0.3l-0.2,0.2c0,0,0,0-0.1,0.1l-0.1,0.1
				l-0.1,0.1l-0.2,0.1l-0.1,0.1c0,0,0,0-0.1,0c-0.1,0-0.1,0,0,0c0,0,0,0,0,0c-0.1,0-0.2,0.1-0.3,0.1c-0.2,0-0.3,0-0.4,0
				c-0.1,0-0.2,0-0.4-0.1c-0.1-0.1-0.2-0.1-0.3-0.3c-0.1-0.2-0.1-0.4-0.1-0.5c0.1-0.1,0.1-0.1,0.1-0.2l0.1-0.1c0,0,0,0,0,0l0,0
				l0.1,0l0-0.1l0,0l0.1-0.1c0,0,0.1-0.1,0.1-0.1c0,0,0.1,0,0.1-0.1l0.2-0.1l0.1-0.1l0,0l0.2-0.3l0.9-1.1c0.3-0.4,0.6-0.7,0.9-1.1
				c0.3-0.4,0.6-0.7,0.9-1.1c0.3-0.4,0.6-0.8,0.8-1.1c0.3-0.4,0.6-0.8,0.9-1.1c0.3-0.4,0.6-0.8,0.8-1.1c0.3-0.4,0.5-0.8,0.8-1.1
				c0.3-0.4,0.5-0.8,0.8-1.2c0.3-0.4,0.5-0.8,0.7-1.1c0.3-0.4,0.7-0.7,1.2-1c0.6-0.2,1.1-0.3,1.6-0.2c0.5,0.1,0.9,0.3,1.1,0.7
				c0.2,0.4,0.2,0.7-0.1,1.2L374.9,54.3z"/>
			<path d="M389.9,50.9l1.5-1.9c0.2-0.3,0.5-0.6,0.7-1c0.2-0.3,0.5-0.6,0.7-1c0.2-0.3,0.5-0.6,0.7-1c0.2-0.3,0.4-0.6,0.7-1l0.2-0.3
				c0,0,0.1-0.1,0.1-0.2l0.3-0.5l0,0l0.1-0.2l0.3-0.5c0,0,0,0,0,0c0,0,0,0,0,0c0,0,0,0,0-0.1c0,0,0,0,0-0.1l0.1-0.1c0,0,0,0,0,0
				c0,0,0,0,0,0l0.1-0.1c0.4-0.4,0.8-0.7,1.4-0.8c0.6-0.2,1.1-0.2,1.6,0c0.5,0.1,0.7,0.4,0.8,0.8c0.1,0.4,0,0.8-0.3,1.1l-0.1,0.1
				l-0.4,0.6l-0.5,0.7c-0.2,0.2-0.3,0.4-0.5,0.7c-0.2,0.2-0.3,0.5-0.5,0.7c-0.3,0.5-0.7,0.9-1,1.3c-0.3,0.4-0.7,0.9-1,1.3
				c-0.6,0.9-1.3,1.8-1.9,2.7c-0.6,0.9-1.3,1.8-1.9,2.7c-0.3,0.5-0.6,0.9-0.9,1.4c-0.3,0.4-0.6,0.9-0.9,1.4
				c-0.3,0.5-0.6,0.9-0.9,1.4c-0.3,0.5-0.5,0.9-0.8,1.4c-0.3,0.5-0.5,0.9-0.8,1.4c-0.3,0.4-0.5,0.9-0.7,1.4
				c-0.1,0.2-0.2,0.4-0.3,0.6l0.8-0.7c0.9-0.8,1.9-1.7,2.9-2.5l2.8-2.6c0.2-0.2,0.5-0.4,0.7-0.6c0.2-0.2,0.5-0.4,0.7-0.7l1.4-1.3
				c0.2-0.2,0.4-0.3,0.6-0.3c0.3,0,0.5,0,0.7,0.1c0.2,0.1,0.3,0.2,0.3,0.4c0,0.2-0.1,0.3-0.2,0.5l-1.4,1.3c-0.2,0.2-0.5,0.4-0.7,0.7
				c-0.2,0.2-0.5,0.4-0.7,0.6c-0.5,0.4-0.9,0.9-1.4,1.3c-0.5,0.4-1,0.9-1.4,1.3l-2.9,2.6l-1.5,1.3c-0.1,0.1-0.3,0.2-0.4,0.3
				c-0.1,0.1-0.3,0.2-0.4,0.3c-0.1,0.1-0.3,0.2-0.4,0.3c-0.1,0.1-0.3,0.2-0.4,0.3c-0.2,0.2-0.4,0.2-0.7,0.3c-0.3,0-0.5,0-0.6-0.2
				c-0.1-0.1-0.2-0.2-0.2-0.4c0-0.3,0-0.6,0.1-0.8c0-0.1,0-0.3,0.1-0.4c0-0.1,0.1-0.3,0.1-0.4c0.1-0.2,0.1-0.5,0.2-0.7
				c0.1-0.2,0.2-0.5,0.3-0.7c0.4-1,0.8-1.9,1.3-2.9c0.4-0.9,0.9-1.9,1.5-2.8l0.3-0.6c-0.4,0.4-0.8,0.8-1.1,1.2
				c-0.4,0.4-0.8,0.8-1.2,1.1c-0.2,0.1-0.3,0.3-0.5,0.4c-0.2,0.2-0.3,0.3-0.5,0.5c-0.2,0.1-0.3,0.3-0.5,0.4
				c-0.2,0.1-0.3,0.3-0.5,0.4c-0.3,0.3-0.7,0.6-1,0.9c-0.4,0.3-0.7,0.6-1.1,0.9l-0.6,0.4c-0.1,0.1-0.3,0.2-0.3,0.2
				c-0.1,0.1-0.2,0.1-0.3,0.2l-0.4,0.2l-0.4,0.1l-0.5,0.1c0,0-0.1,0-0.1,0c-0.1,0-0.1,0-0.2,0c-0.2,0-0.3,0-0.4,0
				c-0.2-0.1-0.3-0.1-0.4-0.2c-0.1-0.1-0.2-0.2-0.2-0.2l-0.1-0.2v-0.2c0-0.1,0-0.1,0-0.2c0-0.1,0-0.1,0.1-0.2l0.1-0.3
				c0.1-0.2,0.2-0.4,0.3-0.6l0.3-0.5l0.7-1c0.1-0.2,0.2-0.3,0.4-0.5c0.1-0.2,0.3-0.3,0.4-0.5c0.3-0.3,0.5-0.7,0.8-1
				c0.3-0.3,0.6-0.7,0.8-1l0.9-1l1-1c0.1-0.1,0.2-0.2,0.3-0.2c0.1-0.1,0.2-0.2,0.3-0.3c0.2-0.2,0.4-0.4,0.7-0.5
				c0.2-0.1,0.3-0.2,0.4-0.3l0.5-0.3l0.3-0.1l0.4-0.1l0.5-0.1c0,0,0.1,0,0.1,0c0.1,0,0.1,0,0.1,0h0.3c0.5-0.1,0.9,0,1.2,0.2
				c0.4-0.4,0.7-0.9,1.1-1.3C389.2,51.8,389.5,51.4,389.9,50.9z M385.8,55.1h-0.2c0,0-0.1,0-0.2,0c-0.1,0-0.2,0.1-0.3,0.1
				c-0.1,0-0.2,0.1-0.3,0.1c-0.2,0.1-0.4,0.2-0.6,0.3c-0.2,0.1-0.3,0.2-0.5,0.4l-0.5,0.4l-0.5,0.4c-0.2,0.1-0.3,0.3-0.5,0.4
				c-0.2,0.1-0.3,0.3-0.5,0.4c-0.1,0.1-0.3,0.3-0.5,0.4c-0.1,0.1-0.3,0.3-0.5,0.4l-0.9,0.9c-0.2,0.2-0.3,0.3-0.4,0.5
				c-0.1,0.1-0.2,0.3-0.4,0.5c-0.1,0.2-0.3,0.3-0.4,0.5c-0.1,0.2-0.2,0.3-0.3,0.5l-0.3,0.5c-0.1,0.2-0.2,0.3-0.3,0.5
				c-0.1,0.2-0.1,0.3-0.1,0.4c0,0,0,0.1,0,0.1c0,0,0,0.1,0,0.1l0,0c0,0,0,0,0.1,0c0,0,0.1,0,0.2,0l0.3-0.1l0.3-0.1l0.3-0.1
				c0.2-0.1,0.4-0.2,0.5-0.3l0.6-0.4c0.2-0.1,0.3-0.3,0.5-0.4c0.2-0.1,0.3-0.3,0.5-0.4c0.2-0.1,0.3-0.3,0.5-0.4
				c0.2-0.1,0.3-0.3,0.5-0.4l0.9-0.9l0.9-0.9c0.3-0.3,0.6-0.6,0.9-0.9c0.3-0.3,0.6-0.6,0.9-0.9c0.1-0.1,0.1-0.2,0.2-0.3
				c0.1-0.1,0.2-0.2,0.3-0.3c-0.1,0-0.2,0-0.4,0l0.6-0.6l-0.3,0.1l0.8-0.9c0.1-0.1,0.1-0.2,0.2-0.2c0.1-0.1,0.1-0.2,0.2-0.2
				c0.1,0.1,0.1,0.2,0.1,0.3c0.1-0.1,0.2-0.3,0.3-0.4c0.1-0.1,0.2-0.3,0.4-0.4c0,0,0.1,0.1,0.1,0.1c0,0,0.1,0.1,0.1,0.1L389,53
				l1.6-1.9c0.2-0.3,0.5-0.5,0.7-0.8c0.2-0.3,0.4-0.5,0.7-0.8l0.4-0.5c0.3-0.5,0.6-0.9,0.9-1.4c0.3-0.5,0.6-0.9,0.9-1.4l0.9-1.4
				l0.4-0.7l0.2-0.3l0.2-0.2l0.1-0.2l0.6,0.2c0,0,0,0,0,0c0,0,0,0,0,0l1.1,0.3l0,0l0.6,0.2l-3.3,3.7l-0.2,0.2l-0.8,1.2l-1.1,1.5
				l-0.8,0.8l-2.5,2.6l1.1-1.7c-0.3,0.3-0.5,0.6-0.8,0.9c-0.3,0.3-0.6,0.6-0.9,0.9l0.8-1.3c-0.2,0.2-0.4,0.5-0.7,0.7
				c-0.2,0.2-0.4,0.5-0.6,0.7l0,0c0.6-0.9,1.1-1.9,1.7-2.8c0.5-0.9,1.1-1.9,1.7-2.8c0.3-0.5,0.6-0.9,0.9-1.4
				c0.3-0.5,0.6-0.9,0.9-1.4c0.1-0.2,0.2-0.4,0.4-0.6c0.1-0.2,0.3-0.4,0.4-0.6l0.4-0.7l0,0l0.3-0.5c0,0,0.1-0.1,0.1-0.2l0,0l0.1-0.1
				c0,0,0,0,0.1-0.1l0.5,0.1l0.1-0.1c0.2-0.3,0.5-0.5,0.9-0.6c0.4-0.1,0.7-0.1,1,0c0.3,0.1,0.5,0.3,0.6,0.5c0.1,0.2,0,0.5-0.2,0.7
				l-0.1,0l0.7,0.2l-0.4,0.4l-0.4,0.5l-0.9,0.9l-1.7,1.8l-0.2,0.2l-0.9,1.2c-0.6,0.9-1.3,1.8-1.9,2.7c-0.6,0.9-1.2,1.8-1.8,2.7
				c-0.3,0.5-0.6,0.9-0.9,1.4c-0.3,0.5-0.6,0.9-0.9,1.4c-0.6,0.9-1.1,1.8-1.6,2.8c-0.3,0.5-0.5,0.9-0.8,1.4
				c-0.2,0.5-0.5,0.9-0.7,1.4c-0.1,0.2-0.2,0.4-0.3,0.6c-0.1,0.2-0.2,0.4-0.2,0.6c0.1-0.1,0.2-0.2,0.3-0.3c0.1-0.1,0.2-0.2,0.3-0.2
				l-0.2,0.4l1.1-0.9c0.5-0.4,1-0.8,1.5-1.2c0.5-0.4,1-0.8,1.4-1.3l2.8-2.6l2.8-2.6c0.1-0.1,0.3-0.2,0.4-0.2c0.2,0,0.3,0,0.4,0
				c0.1,0.1,0.2,0.1,0.2,0.3c0,0.1-0.1,0.2-0.2,0.3c-0.5,0.4-0.9,0.9-1.4,1.3c-0.5,0.4-0.9,0.9-1.4,1.3c-0.5,0.4-0.9,0.9-1.4,1.3
				c-0.5,0.4-0.9,0.9-1.4,1.3c-0.5,0.4-1,0.9-1.4,1.3c-0.5,0.4-1,0.9-1.5,1.3c-0.2,0.2-0.5,0.4-0.7,0.6c-0.3,0.2-0.5,0.4-0.8,0.6
				c-0.1,0.1-0.3,0.2-0.4,0.3c-0.1,0.1-0.3,0.2-0.4,0.3l-0.2,0.1c0,0,0,0,0,0c0,0,0,0,0,0l-0.1,0l-0.6,0.5c-0.1,0.1-0.3,0.2-0.5,0.2
				c-0.2,0-0.3,0-0.4-0.1c-0.1-0.1-0.1-0.2-0.1-0.3c0-0.1,0-0.2,0-0.4c0-0.1,0-0.3,0.1-0.4c0-0.1,0-0.2,0.1-0.4
				c0-0.1,0.1-0.3,0.1-0.4c0.1-0.2,0.2-0.5,0.2-0.7c0.1-0.2,0.2-0.5,0.3-0.7c0.2-0.5,0.4-0.9,0.6-1.4c0.2-0.5,0.5-1,0.7-1.4
				c0.2-0.5,0.5-0.9,0.7-1.4c0.3-0.5,0.5-0.9,0.8-1.4c0.2-0.3,0.3-0.5,0.5-0.8c0.2-0.3,0.3-0.5,0.5-0.8l-0.9,0.9l0.6-1.1
				c-0.5,0.6-1.1,1.1-1.6,1.6c-0.5,0.5-1.1,1.1-1.6,1.6l-0.9,0.9l-0.9,0.9c-0.3,0.3-0.7,0.6-1,0.9c-0.3,0.3-0.7,0.6-1.1,0.8
				l-0.6,0.4c-0.1,0.1-0.2,0.1-0.3,0.2c-0.1,0.1-0.2,0.1-0.3,0.2l-0.4,0.2l-0.4,0.1c-0.1,0-0.3,0.1-0.4,0.1l-0.3,0c0,0-0.1,0-0.2,0
				c-0.1,0-0.1,0-0.2,0c-0.1,0-0.2-0.1-0.3-0.1c-0.1,0-0.1-0.1-0.1-0.1c0,0,0-0.1-0.1-0.1c0-0.1,0-0.1-0.1-0.2l0-0.2
				c0-0.1,0-0.2,0.1-0.3c0-0.1,0.1-0.2,0.1-0.3c0.1-0.3,0.3-0.7,0.6-1c0.1-0.2,0.2-0.3,0.3-0.5c0.1-0.2,0.2-0.3,0.4-0.5l0.8-1
				c0.3-0.3,0.5-0.6,0.8-0.9c0.3-0.3,0.6-0.6,0.9-0.9c0.2-0.2,0.3-0.3,0.4-0.5c0.1-0.1,0.3-0.3,0.4-0.5c0.2-0.2,0.3-0.3,0.5-0.5
				c0.2-0.1,0.4-0.3,0.5-0.5c0.1-0.1,0.2-0.2,0.3-0.2c0.1-0.1,0.2-0.1,0.3-0.2l0.6-0.5c0.1-0.1,0.3-0.2,0.4-0.2
				c0.1-0.1,0.3-0.1,0.4-0.2c0.1,0,0.2-0.1,0.3-0.1c0.1,0,0.2-0.1,0.3-0.1l0.4-0.1c0,0,0.1,0,0.2,0h0.2c0.5,0,0.8,0.1,1,0.4
				c0.1-0.1,0.2-0.2,0.3-0.3c0.1-0.1,0.2-0.2,0.3-0.3c0,0,0.1,0.1,0.1,0.1c0,0,0.1,0,0.1,0.1c0.4-0.4,0.7-0.9,1.1-1.3
				c0.3-0.4,0.7-0.9,1.1-1.3c0.3-0.3,0.5-0.6,0.8-0.9c0.2-0.3,0.5-0.6,0.7-0.9l0.7-0.9c0.1-0.2,0.2-0.3,0.4-0.5
				c0.1-0.1,0.2-0.3,0.4-0.5c0.2-0.3,0.5-0.6,0.7-1c0.2-0.3,0.5-0.6,0.7-1l0.7-0.9l0.4-0.5l0,0l0.3-0.4l0,0l0.6,0.2
				c0,0,0-0.1,0.1-0.1l0,0c0.1-0.1,0.2-0.2,0.4-0.3c0.2-0.1,0.3-0.1,0.5,0c0.1,0,0.2,0.1,0.3,0.2c0,0.1,0,0.2-0.1,0.4l0,0h0l0,0
				l0.6,0.2l-0.4,0.6l-0.5,0.7l-1,1.3l-1.1,1.5l-2.4,2.6c-0.4,0.7-0.9,1.3-1.3,2c-0.4,0.7-0.9,1.3-1.3,2c-0.6,0.9-1.2,1.8-1.7,2.7
				c-0.6,0.9-1.1,1.8-1.7,2.8c-0.3,0.5-0.5,0.9-0.8,1.4c-0.2,0.5-0.5,0.9-0.7,1.4c-0.2,0.5-0.4,0.9-0.5,1.4c0,0-0.1,0.1-0.1,0.2
				c0.1-0.1,0.2-0.1,0.2-0.2c0.1-0.1,0.2-0.1,0.2-0.2l-0.1,0.2c0,0-0.1,0.1-0.1,0.2l0.3-0.2l0.3-0.3l-0.1,0.4c0,0,0,0,0,0
				c0,0,0,0,0,0l0.1,0c0.5-0.4,1-0.9,1.5-1.2c0.5-0.4,1-0.9,1.4-1.3c0.5-0.4,0.9-0.8,1.4-1.3c0.5-0.4,0.9-0.9,1.4-1.3
				c0.5-0.4,0.9-0.9,1.4-1.3c0.5-0.4,1-0.9,1.5-1.4c0.5-0.5,1-0.9,1.4-1.4c0.1-0.1,0.3-0.2,0.4-0.1c0.1,0.1,0.1,0.2,0,0.3
				c-0.5,0.5-1,0.9-1.5,1.4c-0.5,0.5-1,0.9-1.4,1.4l-2.8,2.6c-0.5,0.4-1,0.9-1.4,1.3c-0.5,0.4-1,0.9-1.5,1.3c-0.5,0.4-1,0.8-1.5,1.2
				l-0.7,0.5c0,0.1,0,0.1-0.1,0.2c0,0.1,0,0.1,0,0.2c0,0,0,0,0,0l-0.3,0l0,0c0,0,0,0.1,0,0.1l-0.1,0l-0.3,0.2
				c-0.1,0.1-0.3,0.1-0.4,0c-0.1,0-0.1-0.1-0.1-0.1l0-0.3l-0.1,0l0.1-0.1l-0.2,0l0.3-0.2l0-0.1c0-0.1,0.1-0.2,0.1-0.4
				c0-0.1,0.1-0.2,0.1-0.4c0.1-0.2,0.2-0.5,0.2-0.7c0.1-0.2,0.2-0.5,0.3-0.7c0.2-0.5,0.4-1,0.7-1.4c0.2-0.5,0.5-0.9,0.7-1.4
				c0.5-1,1-1.9,1.6-2.8c0.3-0.5,0.5-0.9,0.8-1.4c0.3-0.5,0.6-0.9,0.8-1.4l0.2-0.3c-0.2,0.2-0.4,0.3-0.5,0.5
				c-0.2,0.2-0.3,0.4-0.5,0.5c-0.1,0.1-0.1,0.1-0.2,0.2c-0.1,0.1-0.1,0.1-0.2,0.2c0.1-0.2,0.2-0.4,0.3-0.6c0.1-0.2,0.2-0.4,0.4-0.6
				c0-0.1,0-0.1,0.1-0.1c-0.1,0.1-0.3,0.3-0.4,0.4c-0.1,0.1-0.2,0.3-0.4,0.4c-0.1,0.1-0.1,0.1-0.2,0.2c0,0.1-0.1,0.1-0.2,0.2
				l0.1-0.2c-0.2,0.2-0.5,0.4-0.8,0.6c-0.4,0.5-0.9,0.9-1.3,1.4c-0.4,0.5-0.9,0.9-1.4,1.4c-0.2,0.2-0.3,0.3-0.5,0.4
				c-0.1,0.1-0.3,0.3-0.5,0.5l-0.9,0.9c-0.3,0.3-0.7,0.6-1,0.9c-0.3,0.3-0.7,0.6-1.1,0.8l-0.6,0.4l-0.6,0.4l-0.3,0.2l-0.3,0.1
				c-0.1,0-0.2,0.1-0.4,0.1c0,0-0.1,0-0.2,0h-0.2l-0.2-0.1l-0.1-0.1c0-0.1-0.1-0.2-0.1-0.3c0-0.1,0-0.1,0-0.2c0,0,0-0.1,0-0.1
				c0-0.1,0.1-0.2,0.1-0.3c0.1-0.3,0.3-0.6,0.6-1c0.1-0.2,0.2-0.3,0.3-0.5c0.1-0.2,0.2-0.3,0.4-0.5c0.1-0.2,0.2-0.3,0.4-0.5
				c0.1-0.1,0.3-0.3,0.4-0.5c0.3-0.3,0.5-0.6,0.8-0.9c0.3-0.3,0.6-0.6,0.9-0.9c0.3-0.3,0.6-0.6,0.9-0.9l0.5-0.4l0.5-0.4
				c0.1-0.1,0.2-0.1,0.3-0.2c0.1-0.1,0.2-0.1,0.3-0.2l0.6-0.4c0.1-0.1,0.2-0.1,0.4-0.2c0.1-0.1,0.2-0.1,0.4-0.2l0.5-0.1
				c0.1,0,0.2,0,0.3,0c0,0,0.1,0,0.2,0h0.2c0.2,0,0.3,0,0.4,0.1c0.1,0.1,0.1,0.2,0,0.3c0,0.1-0.1,0.2-0.3,0.3
				C386.1,55,386,55.1,385.8,55.1z M385.5,55.6L385.5,55.6C385.5,55.6,385.6,55.6,385.5,55.6c0.1,0,0.1,0,0.1,0L385.5,55.6l-0.2,0
				l-0.2,0.1l-0.5,0.3l-0.5,0.3c-0.2,0.1-0.4,0.3-0.5,0.4c-0.2,0.1-0.3,0.2-0.5,0.4l-1,0.8c-0.3,0.3-0.6,0.6-0.9,0.9
				c-0.3,0.3-0.6,0.6-0.9,0.9c-0.2,0.1-0.3,0.3-0.4,0.4c-0.1,0.2-0.3,0.3-0.4,0.5c-0.1,0.2-0.3,0.3-0.4,0.5
				c-0.1,0.2-0.2,0.3-0.3,0.5l-0.3,0.5l-0.2,0.4l-0.1,0.4l0,0.1h0.1l0.2-0.1l0.2-0.1l0.3-0.1c0.2-0.1,0.3-0.2,0.5-0.3
				c0.1-0.1,0.2-0.1,0.3-0.2c0.1-0.1,0.2-0.1,0.2-0.2l1-0.8c0.3-0.3,0.6-0.5,0.9-0.9l0.9-0.9c0.1-0.1,0.3-0.3,0.4-0.4
				c0.1-0.1,0.3-0.3,0.4-0.4c0.4-0.4,0.7-0.8,1.1-1.1c0.3-0.4,0.7-0.8,1.1-1.2c-0.1,0-0.1,0-0.2,0c0,0,0,0,0,0c0,0,0,0,0,0l0.1,0
				l0.1,0h0c0,0,0,0,0,0c0,0,0,0,0,0l0.3-0.3h-0.2C385.7,55.6,385.6,55.6,385.5,55.6z M378.4,62.7L378.4,62.7L378.4,62.7
				c-0.1-0.1-0.1-0.1-0.2-0.1h-0.1l0,0c0,0,0.1,0,0.2,0h0C378.4,62.6,378.4,62.6,378.4,62.7z M385.4,56L385.4,56c0.1,0,0.2,0,0.2,0
				c0,0,0,0,0.1,0h0c0.1-0.1,0.1-0.1,0.1-0.1c0,0,0,0-0.1,0C385.6,55.9,385.5,56,385.4,56c-0.1,0-0.3,0.1-0.4,0.2
				c-0.1,0-0.2,0.1-0.3,0.1c-0.1,0.1-0.2,0.1-0.3,0.2l-1.1,0.7l-1,0.8c-0.3,0.3-0.6,0.5-0.9,0.8c-0.3,0.3-0.6,0.6-0.9,0.9
				c-0.1,0.1-0.3,0.3-0.4,0.4c-0.1,0.1-0.3,0.3-0.4,0.4l-0.7,0.9l-0.3,0.5l-0.2,0.4l-0.1,0.2l0,0c0.1,0,0.2-0.1,0.2-0.1
				c0.1,0,0.2-0.1,0.2-0.1c0.1,0,0.2-0.1,0.2-0.1c0.1,0,0.2-0.1,0.3-0.2l0.5-0.3c0.2-0.1,0.3-0.3,0.5-0.4c0.2-0.1,0.3-0.3,0.5-0.4
				c0.2-0.1,0.3-0.3,0.5-0.4c0.2-0.1,0.3-0.3,0.5-0.4l0.9-0.9c0.2-0.1,0.3-0.3,0.4-0.4c0.1-0.1,0.3-0.3,0.4-0.5
				c0.3-0.4,0.7-0.7,1-1.1c0.3-0.4,0.7-0.7,1-1.1C385.5,56.1,385.4,56.1,385.4,56z M388.3,54.6L388.3,54.6L388.3,54.6L388.3,54.6z"
				/>
			<path d="M397.2,55.8c0,0.1-0.1,0.3-0.1,0.4c0,0.1-0.1,0.2-0.1,0.4c0,0.3-0.1,0.5-0.1,0.8c0,0.3,0,0.5,0,0.8c0,0.2,0,0.5,0.1,0.7
				c0,0.2,0.1,0.5,0.1,0.7c0.4-0.3,0.7-0.5,1-0.8c0.3-0.3,0.7-0.6,1-0.8c0.5-0.4,1.1-0.9,1.6-1.3c0.5-0.4,1-0.9,1.5-1.4
				c0.2-0.2,0.5-0.3,0.8-0.4c0.3-0.1,0.5,0,0.7,0.1c0.2,0.1,0.3,0.3,0.3,0.5c0,0.2-0.1,0.4-0.3,0.6c-0.5,0.5-1,0.9-1.6,1.4
				c-0.5,0.5-1.1,0.9-1.6,1.4c-0.5,0.4-1,0.9-1.6,1.3c-0.5,0.4-1.1,0.8-1.6,1.2c0,0.1,0,0.2-0.1,0.3c0,0.1-0.1,0.2-0.1,0.3
				c-0.1,0.4-0.4,0.8-0.7,1.2c-0.1,0.2-0.3,0.4-0.4,0.6c-0.2,0.2-0.3,0.4-0.5,0.5c-0.2,0.2-0.4,0.3-0.6,0.5
				c-0.2,0.1-0.4,0.3-0.6,0.4c-0.4,0.3-0.9,0.5-1.3,0.7c-0.2,0.1-0.4,0.2-0.6,0.3c-0.2,0.1-0.4,0.2-0.7,0.3l-0.6,0.3
				c-0.1,0-0.2,0.1-0.4,0.1c-0.1,0-0.1,0-0.2,0l-0.1,0l-0.1,0c-0.3,0.1-0.5,0.1-0.8,0c-0.2-0.1-0.4-0.2-0.5-0.4
				c-0.1-0.2,0-0.4,0.2-0.6l0,0c0.5-0.6,1-1.1,1.5-1.5c0.3-0.2,0.5-0.5,0.8-0.7c0.3-0.2,0.5-0.5,0.8-0.7l1.9-1.5l0-0.2l-0.1-0.3
				l0-0.1l-0.1-0.1l-0.1-0.2c-0.1-0.3-0.2-0.6-0.3-0.9c-0.1-0.3-0.2-0.6-0.2-0.9c-0.2-0.6-0.3-1.3-0.3-2c0-0.2,0-0.4,0-0.5
				c0-0.2,0-0.4,0.1-0.6c0-0.1,0-0.2,0.1-0.3c0-0.1,0.1-0.2,0.1-0.3c0-0.1,0.1-0.2,0.1-0.3c0-0.1,0.1-0.2,0.2-0.3
				c0.1-0.1,0.2-0.3,0.2-0.4c0.1-0.1,0.2-0.2,0.3-0.4l0.4-0.4c0.1-0.1,0.2-0.1,0.3-0.2c0.1-0.1,0.2-0.1,0.3-0.2
				c0.2-0.1,0.4-0.3,0.8-0.4c0.3-0.1,0.7-0.2,1-0.3c0.2,0,0.4-0.1,0.6-0.1c0.2,0,0.4,0,0.5,0c0.3,0,0.6,0.1,0.9,0.3l0.6,0.4
				c0.3,0.2,0.4,0.4,0.3,0.7c0,0.3-0.2,0.6-0.5,0.8c-0.1,0.1-0.2,0.2-0.4,0.2l-1.8,0.8C397.3,55.6,397.3,55.7,397.2,55.8z M397.7,55
				L397.7,55C397.7,55,397.7,55,397.7,55L397.7,55L397.7,55z"/>
			<path d="M287.3,50.4l-16.4,0c-1.5,0-1.1-1.6,0.5-1.7c1.6-0.1,21.9-1.5,21.9-1.5c3.2-0.3,3.7,3.3-0.6,3.3
				C288.4,50.5,287.3,50.4,287.3,50.4z"/>
			<path d="M331.7,57.4l10.8-17.9c0.2-0.3,0.4-0.6,0.8-0.8l-10.8,0.4c-0.3,0-0.5-0.1-0.6-0.2c-0.1-0.1-0.2-0.3-0.1-0.5
				c0-0.2,0.2-0.4,0.4-0.5c0.2-0.1,0.5-0.2,0.7-0.3l49.6-4c0.6,0,1.2,0.1,1.5,0.4c0.4,0.3,0.5,0.7,0.4,1.2c0,0.2-0.1,0.5-0.3,0.7
				c-0.1,0.2-0.3,0.4-0.6,0.6c-0.2,0.2-0.5,0.3-0.8,0.4c-0.3,0.1-0.6,0.2-0.9,0.2l-0.1,0l-35.1,1.4c0.2,0.2,0.3,0.4,0.4,0.7
				c0,0.3,0,0.6-0.2,0.9l-0.1,0.1l-11.8,16.6l-1.6,2.3l-6.3,8.9c-0.1,0.2-0.3,0.3-0.5,0.4c-0.2,0.1-0.4,0.1-0.7,0.1
				c-0.2-0.1-0.3-0.1-0.4-0.3c-0.1-0.1,0-0.3,0.1-0.5l5-8.3L331.7,57.4z"/>
			<path d="M347.5,50.4l-16.4,0c-1.5,0-1.1-1.6,0.5-1.7c1.6-0.1,21.9-1.5,21.9-1.5c3.2-0.3,3.7,3.3-0.6,3.3
				C348.6,50.5,347.5,50.4,347.5,50.4z"/>
			<path d="M272.9,59.2c0,0,2.3,1.3,4.3,0.4l-1.3,1.9c0,0-2.8,0-4.1-1.4"/>
			<g>
				<path d="M251.5,54.5l-1.2,1.5l-1.6,1.9c0,0,0,0,0,0l0.3,0.3l0.4,0.3c0.1,0.1,0.3,0.1,0.4,0.2c0.1,0.1,0.3,0.1,0.5,0.1
					c0.4,0.1,0.7,0.1,1,0.1c0.4,0,0.7-0.1,1.1-0.2c0.4-0.1,0.7-0.2,1-0.5c0.2-0.1,0.4-0.2,0.5-0.3c0.2-0.1,0.3-0.2,0.5-0.4
					c0.3-0.2,0.5-0.5,0.8-0.8c0.1-0.2,0.3-0.3,0.6-0.4c0.3-0.1,0.5-0.1,0.7-0.1c0.2,0.1,0.4,0.2,0.4,0.3c0.1,0.2,0,0.3-0.1,0.5
					c0,0.1-0.1,0.2-0.2,0.2l0,0c-0.2,0.1-0.4,0.3-0.6,0.4c-0.2,0.1-0.4,0.3-0.6,0.4c-0.3,0.3-0.8,0.5-1.2,0.8
					c-0.4,0.3-0.9,0.5-1.4,0.7c-0.5,0.2-1,0.3-1.5,0.4c-0.1,0-0.3,0.1-0.4,0.1c-0.1,0-0.3,0-0.4,0l-0.8,0.1c-0.3,0-0.5,0-0.8,0
					c-0.3,0-0.5,0-0.8,0c-0.1,0-0.2,0-0.3,0c-0.1,0-0.2,0-0.3,0l-0.2,0.2l-1.1,1.3l-2.3,2.7c-0.8,0.9-1.5,1.8-2.3,2.7
					c-0.7,0.9-1.5,1.8-2.2,2.7l-4.5,5.5c-0.6,0.8-1.3,1.6-1.9,2.4c-0.6,0.8-1.3,1.6-1.9,2.4l-0.6,0.7l0,0l0,0
					c-0.1,0.2-0.3,0.3-0.5,0.4c-0.2,0.1-0.5,0.1-0.7,0.1c-0.2-0.1-0.4-0.2-0.4-0.3c-0.1-0.2,0-0.3,0.1-0.5l0-0.1l1.1-1.6l0.5-0.8
					l0.6-0.8l0.4-0.6c0.1-0.1,0.2-0.2,0.2-0.3c0.2-0.2,0.3-0.4,0.4-0.7l1.1-1.6l2.3-3.2l1.1-1.6c0.2-0.3,0.4-0.6,0.6-0.8
					c0.2-0.3,0.4-0.5,0.6-0.8c0.8-1,1.6-2.1,2.3-3.2c0.8-1.1,1.5-2.1,2.3-3.2c0.5-0.7,1.1-1.4,1.6-2.1c0.5-0.7,1.1-1.4,1.6-2.1
					c0-0.1,0-0.2,0-0.3c0.1-0.1,0.2-0.2,0.2-0.2l0.2,0l1.2-1.6c0.2-0.3,0.4-0.5,0.6-0.8c0.2-0.3,0.4-0.5,0.6-0.8
					c0.2-0.3,0.4-0.5,0.6-0.8c0.2-0.3,0.4-0.5,0.6-0.8c0.4-0.5,0.8-1.1,1.3-1.6c0.4-0.5,0.9-1,1.3-1.5c0.2-0.3,0.4-0.5,0.6-0.8
					c0.2-0.3,0.4-0.5,0.7-0.8c0.2-0.3,0.4-0.5,0.7-0.8c0.2-0.2,0.5-0.5,0.7-0.8l0.8-0.8l0.5-0.4l0.5-0.4l0.4-0.2
					c0.1,0,0.1-0.1,0.1-0.1c0,0,0.1,0,0.1-0.1c0.1,0,0.2-0.1,0.4-0.2l0.3-0.1c0.1,0,0.1-0.1,0.2-0.1c0.1,0,0.2,0,0.3-0.1
					c0.2,0,0.4,0,0.6,0c0,0,0.1,0,0.1,0c0,0,0.1,0,0.1,0l0.1,0c0.1,0,0.1,0,0.1,0c0,0,0,0,0,0h0.1c0.1,0,0.2,0.1,0.3,0.1
					c0.1,0,0.2,0.1,0.3,0.2c0.2,0.1,0.3,0.3,0.3,0.4c0,0.1,0.1,0.1,0.1,0.2c0,0.1,0,0.1,0.1,0.2l0,0.3c0,0.1,0,0.2,0,0.2
					c0,0.1,0,0.1-0.1,0.2c0,0.1,0,0.1-0.1,0.2c0,0.1-0.1,0.1-0.1,0.2l-0.2,0.3c-0.1,0.1-0.1,0.2-0.1,0.2c0,0.1-0.1,0.2-0.2,0.2
					l-0.3,0.4l-0.7,0.8l-0.8,0.8l-0.8,0.7c-0.5,0.5-1,1-1.6,1.5c-0.5,0.5-1.1,1-1.6,1.4l-2.3,1.9L251.5,54.5z"/>
			</g>
		</g>
		<path d="M260.7,56.8l1.2-0.9c0.4-0.3,0.9-0.4,1.5-0.4c0.6,0,1.1,0.2,1.6,0.5c0.5,0.3,0.7,0.7,0.8,1.1c0,0.4-0.1,0.8-0.5,1
			c-0.2,0.1-0.4,0.2-0.6,0.3L263,59c-0.4,0.1-0.9,0.1-1.4,0c-0.5-0.1-0.9-0.4-1.1-0.7c-0.2-0.3-0.3-0.5-0.2-0.8
			C260.3,57.2,260.4,57,260.7,56.8z"/>
		<path d="M318.2,56.8l1.2-0.9c0.4-0.3,0.9-0.4,1.5-0.4c0.6,0,1.1,0.2,1.6,0.5c0.5,0.3,0.7,0.7,0.8,1.1c0,0.4-0.1,0.8-0.5,1
			c-0.2,0.1-0.4,0.2-0.6,0.3l-1.6,0.5c-0.4,0.1-0.9,0.1-1.4,0c-0.5-0.1-0.9-0.4-1.1-0.7c-0.2-0.3-0.3-0.5-0.2-0.8
			C317.8,57.2,317.9,57,318.2,56.8z"/>
	</g>
</g>
</svg>
